<svg width="89" height="82" viewBox="0 0 89 82" fill="none" xmlns="http://www.w3.org/2000/svg">
<path d="M88.1694 0H75.8523C75.3936 0 75.0217 0.342648 75.0217 0.765266V43.7294C74.5456 43.2155 73.8178 42.9142 73.1984 42.7696L72.4529 41.4778C72.287 41.191 71.9427 41.0317 71.5945 41.0804L70.6283 41.2159L70.3841 39.97C70.3195 39.641 70.0307 39.3884 69.6706 39.3467L68.292 39.1866C68.0047 39.1537 67.7218 39.2591 67.5412 39.4657L66.0401 41.1826L63.2294 38.0498C63.0597 37.8604 62.8037 37.758 62.5352 37.7737L58.7302 38.002L47.6458 21.8202C47.4936 21.5981 47.2284 21.4634 46.9433 21.4634H20.459C20.1182 21.4634 19.8122 21.6549 19.6867 21.9469L13.1489 37.155H6.76124C3.97605 37.155 2.44215 38.5683 2.44215 41.1344V47.2211C1.07894 47.3112 0 48.3619 0 49.6405V51.8479C0 53.1856 1.1811 54.2738 2.63298 54.2738H11.0778C11.5351 58.2951 15.236 61.44 19.7191 61.44C24.2027 61.44 27.9034 58.2949 28.3606 54.2738H50.4976C50.9549 58.2951 54.6551 61.44 59.1383 61.44C63.6222 61.44 67.3234 58.2949 67.7806 54.2738H75.0215V59.7181C75.0215 60.1407 75.3934 60.4834 75.8521 60.4834H88.1692C88.6279 60.4834 88.9998 60.1407 88.9998 59.7181V0.765266C89 0.342648 88.6281 0 88.1694 0ZM19.7191 57.9963C16.9888 57.9963 14.7673 55.9496 14.7673 53.4336C14.7673 50.9178 16.9885 48.871 19.7191 48.871C22.4497 48.871 24.6711 50.9178 24.6711 53.4336C24.6711 55.9496 22.4495 57.9963 19.7191 57.9963ZM59.1385 57.9963C56.4083 57.9963 54.1873 55.9496 54.1873 53.4336C54.1873 50.9178 56.4083 48.871 59.1385 48.871C61.8693 48.871 64.0913 50.9178 64.0913 53.4336C64.0911 55.9496 61.8693 57.9963 59.1385 57.9963Z" fill="#9D8329"/>
<path d="M56.7465 26.0505C56.1887 25.6788 55.41 25.7945 55.007 26.3082C54.6039 26.8221 54.7292 27.5395 55.2869 27.911L68.5639 36.7541C68.7847 36.9012 69.0399 36.9718 69.2928 36.9718C69.679 36.9718 70.0599 36.8069 70.3034 36.4964C70.7065 35.9825 70.5813 35.2649 70.0235 34.8935L56.7465 26.0505Z" fill="#9D8329"/>
<path d="M70.1832 29.0916C70.2569 29.6765 70.7953 30.1072 71.4191 30.1072C71.4671 30.1072 71.5159 30.1047 71.5647 30.0993C72.2481 30.026 72.7379 29.4563 72.6584 28.8265L70.2588 9.81421C70.1793 9.18439 69.559 8.73308 68.8773 8.80654C68.1939 8.87982 67.7041 9.44956 67.7836 10.0794L70.1832 29.0916Z" fill="#9D8329"/>
<path d="M65.3783 28.7564C65.6213 28.9776 65.9377 29.088 66.2544 29.088C66.5756 29.088 66.8967 28.9742 67.1404 28.7472C67.6243 28.2963 67.6199 27.5697 67.1305 27.1239L52.8939 14.1542C52.4044 13.7084 51.6158 13.7124 51.132 14.1634C50.6482 14.6141 50.6525 15.3409 51.1419 15.7867L65.3783 28.7564Z" fill="#9D8329"/>
<path d="M64.1656 20.1985C64.3444 20.6724 64.8268 20.9695 65.3424 20.9695C65.478 20.9695 65.616 20.949 65.7518 20.9056C66.4016 20.6972 66.7452 20.0431 66.5191 19.4443L63.9596 12.6648C63.7337 12.0662 63.025 11.7494 62.3734 11.9577C61.7237 12.1661 61.38 12.8202 61.6061 13.419L64.1656 20.1985Z" fill="#9D8329"/>
</svg>
