<svg width="89" height="82" viewBox="0 0 89 82" fill="none" xmlns="http://www.w3.org/2000/svg">
<g clip-path="url(#clip0_52_94)">
<path d="M63.0475 0C56.3899 0 50.3754 1.15313 45.6647 3.31523C40.9539 5.47734 37.0949 9.00078 37.0949 13.6773V27.3387C37.0949 27.7871 37.2514 28.2035 37.3209 28.6199C33.8791 27.7871 30.0549 27.3387 25.9699 27.3387C19.3297 27.3387 13.2979 28.4918 8.58711 30.6539C3.87637 32.816 0 36.3234 0 41V68.3387C0 73.0152 3.87637 76.5387 8.56973 78.7008C13.2631 80.8629 19.3123 82.016 25.9525 82.016C32.5928 82.016 38.6246 80.8629 43.3354 78.7008C48.0461 76.5387 51.9051 73.0152 51.9051 68.3387V66.9453C55.3121 67.7781 59.032 68.3387 63.0301 68.3387C69.6877 68.3387 75.7022 67.1856 80.4129 65.0234C85.1236 62.8613 88.9826 59.3379 88.9826 54.6613V13.6613C88.9826 8.98477 85.1063 5.46133 80.4129 3.29922C75.7195 1.15313 69.6877 0 63.0475 0ZM63.0475 6.83867C68.6969 6.83867 73.7205 7.95977 77.0754 9.51328C80.4303 11.0668 81.5949 12.6844 81.5949 13.6773C81.5949 14.6703 80.4129 16.2879 77.0754 17.8414C73.7379 19.3949 68.6969 20.5 63.0475 20.5C57.3981 20.5 52.3744 19.3789 49.0195 17.8254C45.6647 16.2719 44.5 14.6543 44.5 13.6613C44.5 12.6684 45.682 11.0508 49.0195 9.49727C52.357 7.94375 57.3981 6.83867 63.0475 6.83867ZM44.5 23.3828C44.8998 23.591 45.2475 23.8313 45.6647 24.0234C50.3754 26.1855 56.4072 27.3387 63.0475 27.3387C69.6877 27.3387 75.7195 26.1855 80.4303 24.0234C80.8301 23.8313 81.1951 23.575 81.5949 23.3828V27.3387C81.5949 28.3316 80.4129 29.9492 77.0754 31.5027C73.7205 33.0563 68.6969 34.1773 63.0475 34.1773C57.3981 34.1773 52.3744 33.0563 49.0195 31.5027C45.6647 29.9492 44.5 28.3316 44.5 27.3387V23.3828ZM25.9525 34.1613C31.602 34.1613 36.6256 35.2824 39.9805 36.8359C43.3354 38.3895 44.5 40.007 44.5 41C44.5 41.993 43.318 43.6105 39.9805 45.1641C36.643 46.7176 31.602 47.8387 25.9525 47.8387C20.3031 47.8387 15.2795 46.7176 11.9246 45.1641C8.56973 43.6105 7.40508 41.993 7.40508 41C7.40508 40.007 8.58711 38.3895 11.9246 36.8359C15.2621 35.2824 20.3031 34.1613 25.9525 34.1613ZM81.5775 37.0441V41C81.5775 41.993 80.3955 43.6105 77.058 45.1641C73.7205 46.7176 68.6795 47.8387 63.0301 47.8387C58.8061 47.8387 54.9992 47.1981 51.9051 46.2371V41C51.9051 40.5516 51.7486 40.1352 51.6791 39.7188C55.1209 40.5516 58.9451 41 63.0301 41C69.6877 41 75.7022 39.8469 80.4129 37.6848C80.8301 37.5086 81.1951 37.2523 81.5775 37.0441ZM7.42246 50.7215C7.82227 50.9297 8.16992 51.1699 8.58711 51.3621C13.2979 53.5242 19.3297 54.6773 25.9699 54.6773C32.6102 54.6773 38.642 53.5242 43.3527 51.3621C43.7525 51.1699 44.1176 50.9137 44.5174 50.7215V54.6773C44.5174 55.6703 43.3354 57.2879 39.9979 58.8414C36.643 60.3949 31.6193 61.516 25.9699 61.516C20.3205 61.516 15.2969 60.3949 11.942 58.8414C8.60449 57.2879 7.42246 55.6703 7.42246 54.6773V50.7215ZM81.5775 50.7215V54.6773C81.5775 55.6703 80.3955 57.2879 77.058 58.8414C73.7031 60.3949 68.6795 61.516 63.0301 61.516C58.8061 61.516 54.9992 60.9715 51.9051 60.0266V53.4121C55.3121 54.2449 59.0147 54.6934 63.0301 54.6934C69.6877 54.6934 75.7022 53.5402 80.4129 51.3781C80.8301 51.1699 81.1951 50.9137 81.5775 50.7215ZM7.42246 64.3828C7.82227 64.591 8.16992 64.8313 8.58711 65.0234C13.2979 67.1856 19.3297 68.3387 25.9699 68.3387C32.6102 68.3387 38.642 67.1856 43.3527 65.0234C43.7525 64.8313 44.1176 64.575 44.5174 64.3828V68.3387C44.5174 69.3316 43.3354 70.9492 39.9979 72.5027C36.643 74.0563 31.6193 75.1774 25.9699 75.1774C20.3205 75.1774 15.2969 74.0563 11.942 72.5027C8.60449 70.9492 7.42246 69.3316 7.42246 68.3387V64.3828Z" fill="#9D8329"/>
</g>
<defs>
<clipPath id="clip0_52_94">
<rect width="89" height="82" fill="white"/>
</clipPath>
</defs>
</svg>
