<svg width="89" height="82" viewBox="0 0 89 82" fill="none" xmlns="http://www.w3.org/2000/svg">
<g clip-path="url(#clip0_52_165)">
<path d="M25.0982 17.524C30.2133 17.524 34.358 13.7051 34.358 8.99251C34.358 4.27994 30.2135 0.461182 25.0982 0.461182C19.9834 0.461182 15.8386 4.27994 15.8386 8.99251C15.8386 13.7051 19.9832 17.524 25.0982 17.524Z" fill="#9D8329"/>
<path d="M36.1923 60.1493C34.6498 59.944 33.2511 59.2096 32.2631 58.0644C31.0877 56.7019 30.6582 54.9483 31.0844 53.2531L31.1398 53.0323C29.3724 53.2406 27.6578 52.8645 26.2354 52.0419C24.5552 51.0707 23.3864 49.555 22.9438 47.7736C22.5011 45.9925 22.8381 44.1591 23.8922 42.6112L37.5612 22.5394C36.1882 20.7271 34.0617 19.7844 31.8731 19.7844H18.324C15.5792 19.7844 13.1777 21.2691 12.0031 23.4616L0.484858 44.9602C-0.660208 47.0979 0.292182 49.6863 2.61227 50.7415C4.93289 51.7968 7.74202 50.9188 8.88727 48.7815L12.6577 41.7439L13.8738 56.4992V77.2222C13.8738 79.6063 15.9714 81.5388 18.559 81.5388C21.1466 81.5388 23.2442 79.6063 23.2442 77.2222V57.6838H26.9538V77.2222C26.9538 79.6063 29.0514 81.5388 31.639 81.5388C33.9325 81.5388 35.8396 80.02 36.2439 78.0148C36.2111 77.7545 36.1925 77.4904 36.1925 77.2222V60.1493H36.1923Z" fill="#9D8329"/>
<path d="M57.9991 65.1373C56.8366 64.8789 55.7947 64.2717 55.0316 63.3867C54.1165 62.326 53.7136 60.9965 53.8905 59.6708C53.875 59.6708 53.8593 59.671 53.844 59.671C53.2201 59.671 52.6041 59.5858 52.0125 59.4231V77.2225C52.0125 79.6065 54.1101 81.539 56.6978 81.539C57.4696 81.539 58.197 81.3659 58.8391 81.0613C58.3057 80.1984 57.9992 79.2017 57.9992 78.1396V65.1373H57.9991Z" fill="#9D8329"/>
<path d="M48.4012 50.5981L59.9308 33.6681C60.5453 32.7659 61.4015 32.0499 62.3959 31.5705C60.7628 29.9545 59.761 27.7899 59.761 25.413C59.761 24.6847 59.8576 23.9769 60.0348 23.2978L59.4602 22.4543C58.6054 21.1994 57.1652 20.4895 55.6712 20.4353C55.2123 20.3773 45.0683 20.381 44.6424 20.4354C43.1486 20.4895 41.7081 21.1994 40.8535 22.4543L26.2128 43.9529C24.8375 45.9724 25.4994 48.6365 27.6911 49.9037C29.8836 51.1712 32.7748 50.5602 34.1498 48.5415L35.6256 46.3747L33.7533 53.8229C33.518 54.7585 33.7591 55.742 34.4077 56.4939C35.0564 57.2458 36.042 57.6839 37.0846 57.6839H38.9319V77.2224C38.9319 79.6065 41.0296 81.539 43.6173 81.539C46.2049 81.539 48.3023 79.6065 48.3023 77.2224V57.6838H49.045C47.1952 55.7663 46.8483 52.8783 48.4012 50.5981Z" fill="#9D8329"/>
<path d="M88.4352 51.9397L76.9046 35.0095C76.2316 34.0214 75.0973 33.4621 73.9209 33.4196C73.7433 33.3971 71.7293 33.3865 69.6848 33.3865C67.5622 33.3865 65.4071 33.3979 65.2359 33.4198C64.0593 33.4623 62.9247 34.0216 62.2518 35.0098L50.7221 51.94C49.6393 53.5302 50.1606 55.6285 51.8865 56.6261C53.6135 57.6246 55.8905 57.1427 56.9726 55.5533L58.1347 53.847L56.6603 59.7124C56.4753 60.4493 56.6651 61.2237 57.176 61.8159C57.6866 62.4081 58.463 62.7532 59.284 62.7532H60.7388V78.1397C60.7388 80.0172 62.3906 81.5391 64.4283 81.5391C66.4659 81.5391 68.1175 80.0172 68.1175 78.1397V62.7532H71.0391V78.1397C71.0391 80.0172 72.6912 81.5391 74.7286 81.5391C76.7663 81.5391 78.4178 80.0172 78.4178 78.1397V62.7532H79.8724C80.6932 62.7532 81.4694 62.4081 81.9801 61.8159C82.491 61.2237 82.6808 60.4495 82.4956 59.7124L81.0215 53.8461L82.1845 55.5537C83.2679 57.1447 85.5459 57.6238 87.2705 56.6261C88.9969 55.6281 89.5182 53.5299 88.4352 51.9397Z" fill="#9D8329"/>
<path d="M50.1573 18.5486C55.1103 18.5486 59.1446 14.8495 59.1446 10.2679C59.1446 5.69403 55.122 1.9873 50.1573 1.9873C45.1925 1.9873 41.1699 5.69387 41.1699 10.2679C41.1699 14.8504 45.2053 18.5486 50.1573 18.5486Z" fill="#9D8329"/>
<path d="M65.7229 30.8806C66.8324 31.546 68.1559 31.934 69.5788 31.934C71.0019 31.934 72.3255 31.5458 73.4349 30.8802C75.3734 29.717 76.6562 27.7039 76.6562 25.4129C76.6562 21.8109 73.4881 18.892 69.5788 18.892C65.6691 18.892 62.501 21.811 62.501 25.4129C62.501 27.7042 63.7838 29.7177 65.7229 30.8806Z" fill="#9D8329"/>
</g>
<defs>
<clipPath id="clip0_52_165">
<rect width="89" height="82" fill="white"/>
</clipPath>
</defs>
</svg>
