<svg width="89" height="82" viewBox="0 0 89 82" fill="none" xmlns="http://www.w3.org/2000/svg">
<path d="M27.9977 0.459831C23.7433 1.40821 20.2885 3.43578 18.3372 6.11741C17.6974 7.03309 17.1856 7.88335 17.1856 8.01416C17.1856 8.17767 17.3455 8.07957 17.5055 7.81795C17.7294 7.49092 17.8254 7.45822 17.8254 7.75255C17.8254 7.98146 17.6334 8.24309 17.3775 8.34119C17.0896 8.4393 16.9937 8.73362 17.0896 9.02795C17.2496 9.42038 17.1856 9.48579 16.8977 9.28957C16.5778 9.09335 16.5458 9.22417 16.7058 9.78011C16.8337 10.1725 16.8017 10.4342 16.6738 10.3361C16.3539 10.1398 16.194 12.658 16.13 18.8388C16.098 21.2261 15.938 23.1882 15.8101 23.1882C15.6501 23.1882 15.6501 23.3517 15.7461 23.5153C15.8421 23.7115 15.7461 23.9404 15.4582 24.0385C15.1703 24.1366 15.0744 24.4309 15.1703 24.7253C15.2983 25.0523 15.2343 25.1831 15.0424 25.0523C14.8504 24.9215 14.7545 25.5428 14.8184 26.7201C14.8824 28.5515 14.8824 28.5515 14.6585 27.1126C14.4666 26.0007 14.4026 26.6547 14.3706 29.7942C14.3386 32.3123 14.4346 34.0128 14.6265 34.1436C14.8184 34.2745 14.8504 34.5034 14.7545 34.6996C14.5945 34.9285 14.6905 34.9612 14.9464 34.7977C15.2663 34.6015 15.3303 34.6669 15.1703 35.092C15.0104 35.4518 15.0744 35.5826 15.3303 35.4191C15.5862 35.2555 15.6182 35.3536 15.4902 35.7134C15.3623 36.0404 15.4262 36.2366 15.6501 36.1712C15.8741 36.1385 16.098 36.4001 16.162 36.7599C16.2259 37.1196 16.4499 37.5447 16.6098 37.7409C16.8657 37.9699 16.8657 37.9372 16.7058 37.6101C16.5138 37.2831 16.5778 37.2177 16.8337 37.4139C17.0576 37.5447 17.1856 37.9372 17.0896 38.2642C16.9937 38.6239 17.0576 38.7874 17.2496 38.6893C17.4415 38.5585 17.5055 38.722 17.3775 39.1145C17.1536 39.8666 17.4415 40.9131 17.8254 40.6842C18.1133 40.488 18.5611 41.5018 18.3052 41.7634C18.2092 41.8615 18.1453 41.7307 18.1453 41.5018C18.1453 41.2728 18.0813 41.142 17.9853 41.2401C17.6974 41.5018 18.1772 42.4828 18.4971 42.2866C18.6571 42.1885 18.817 42.3193 18.817 42.5482C18.849 42.7772 18.881 43.1042 18.945 43.3004C18.977 43.4639 19.0409 43.8237 19.0409 44.0526C19.0729 44.2815 19.4888 44.8701 20.0006 45.328C20.4804 45.8185 20.6404 46.0801 20.3845 45.9493C20.1286 45.8185 20.2565 46.0147 20.7043 46.4072C21.1522 46.7996 21.3121 47.0285 21.0882 46.8977C20.7363 46.7015 20.7043 46.7996 20.9922 47.3555C21.2162 47.7153 21.4401 48.0423 21.5361 48.0423C21.632 48.0423 21.6 47.8461 21.4721 47.6172C21.3441 47.421 21.3441 47.3228 21.4721 47.4537C21.8239 47.748 21.8879 54.5501 21.5361 54.3212C21.3761 54.2231 21.3441 54.3866 21.4401 54.7137C21.568 55.0407 21.5361 55.2042 21.3441 55.0734C21.0562 54.8772 20.8963 55.335 20.9922 55.9891C21.0242 56.1526 20.8963 56.1853 20.7363 56.0545C20.5444 55.9564 19.8407 56.218 19.1689 56.6758C17.7614 57.5915 10.404 61.7447 6.46942 63.8704C5.1259 64.6226 3.81437 65.7345 2.95067 66.8791C2.43886 67.5658 2.24693 67.991 2.50283 67.8275C2.75874 67.6639 2.56681 67.9256 2.08698 68.4161C1.22329 69.2664 0.871415 69.855 1.51119 69.4626C1.70312 69.3645 1.73511 69.4953 1.63914 69.7569C1.54318 70.0512 1.31926 70.2148 1.1913 70.1166C1.06335 70.0185 0.839427 70.1821 0.743461 70.4764C0.455564 71.2612 0.519541 71.4902 0.903404 70.9342C1.1913 70.5418 1.22329 70.5418 1.06335 71.0323C0.967381 71.3594 0.871415 71.7845 0.871415 71.948C0.871415 72.1442 0.711472 72.1769 0.519541 72.0788C0.295621 71.9153 0.263632 72.275 0.359598 73.1253C0.519541 74.041 0.487552 74.2045 0.263632 73.7139C0.0397118 73.2561 -0.0242654 74.4661 0.00772321 77.4748L0.0717004 81.8896L33.02 81.9877C51.1575 82.0204 66.2881 81.9877 66.704 81.8896C67.3757 81.7261 67.4077 81.5626 67.4077 78.8483C67.4077 72.7329 66.3201 69.4626 63.3451 66.4212C61.7137 64.7534 60.4982 64.0339 53.5886 60.4693C49.2382 58.2456 45.3356 56.0872 44.9517 55.662C44.3119 54.9426 44.216 54.452 44.12 51.6069L43.9921 48.3693L45.1756 46.7015C46.3272 45.0664 48.5984 40.6842 49.0143 39.278C49.1102 38.8855 49.718 38.1661 50.2938 37.7082C52.2451 36.2039 52.6929 34.6996 52.6929 29.8596C52.6929 26.3604 52.565 25.412 52.0532 24.202C51.5094 23.0247 51.4134 22.0763 51.4134 18.3155C51.4134 10.7612 50.5817 7.88335 47.4468 4.67849C44.3119 1.47363 39.6736 -0.0634079 33.3718 0.0019989C31.4205 0.0346985 28.9894 0.230919 27.9977 0.459831Z" fill="#9D8329"/>
<path d="M55.7639 7.85064C53.8125 8.17767 53.4287 8.5374 53.9085 9.51848C54.2924 10.2706 54.2924 10.2706 54.1004 9.45307C54.0045 8.96253 54.0365 8.79902 54.1964 9.02794C54.3564 9.25686 54.5163 12.2655 54.5803 15.6993C54.6442 21.3569 54.7402 22.1417 55.348 23.4825C55.9878 24.8234 56.0517 25.5428 56.0517 29.8923C56.0517 35.5172 55.8278 36.2366 53.2048 38.9836C52.405 39.8012 51.7333 40.6515 51.7333 40.8477C51.7333 41.4363 50.0059 44.8047 48.5664 47.0612C47.3508 48.9907 47.2549 49.3177 47.2549 51.3453C47.2549 52.9477 47.4148 53.6999 47.8307 54.1904C48.1186 54.5828 51.7653 56.5777 55.8918 58.7034C65.1045 63.3799 66.7359 64.5899 68.7192 68.4161C70.2227 71.2939 70.6066 73.2234 70.6066 77.7037C70.6066 81.5953 70.6385 81.7261 71.3423 81.8896C71.7262 81.9877 75.8527 82.0204 80.523 81.9877L89 81.8896V77.4748C89 73.2561 88.968 72.9618 88.0723 71.1631C86.9527 68.9066 84.2657 66.2577 82.2184 65.3093C81.3547 64.9496 78.8916 63.8377 76.6844 62.8566C74.4772 61.8756 71.9821 60.731 71.0864 60.3385C70.2227 59.9134 69.1671 59.4883 68.7512 59.3574C68.3354 59.2266 68.0795 58.9323 68.1434 58.7361C68.2074 58.4418 70.3507 58.311 75.2769 58.1801C81.1628 58.0493 82.5063 57.9185 83.6579 57.3953C85.7052 56.4796 86.6009 55.2042 86.6009 53.1766C86.6009 51.6723 86.4089 51.1818 84.9694 49.0234C80.7469 42.6136 77.772 34.9939 77.0043 28.5842C76.1726 21.7493 76.0126 20.8009 75.2769 18.9696C73.6135 14.7509 70.4146 11.0882 66.8959 9.32227C63.825 7.78523 59.4745 7.19659 55.7639 7.85064Z" fill="#9D8329"/>
</svg>
