<svg width="84" height="82" viewBox="0 0 84 82" fill="none" xmlns="http://www.w3.org/2000/svg">
<g clip-path="url(#clip0_52_97)">
<g clip-path="url(#clip1_52_97)">
<path d="M33.9017 0.064045C32.891 0.24342 32.0576 0.679045 31.2176 1.47342L30.5745 2.08201L41.1401 12.3897L51.7057 22.7037L51.8501 22.5756C52.2045 22.2681 52.9854 21.3392 53.202 20.9612C53.9042 19.7376 54.0026 18.1617 53.4645 16.8484C53.0838 15.9387 53.1626 16.022 45.5763 8.59076C41.5732 4.67014 38.0754 1.28764 37.8129 1.08264C37.2879 0.666233 36.6054 0.320295 35.9951 0.160139C35.5292 0.0384197 34.3545 -0.0192356 33.9017 0.064045Z" fill="#9D8329"/>
<path d="M16.3406 15.9836L5.02026 27.0344L15.5859 37.3485L26.1515 47.6625L31.0209 42.9091L35.8968 38.1493L37.0846 39.3088L38.2725 40.4683L38.0953 40.763C37.8787 41.1282 37.8525 41.615 38.0362 42.0122C38.1543 42.2685 40.2018 44.389 69.149 74.2165C74.9831 80.2319 76.4137 81.6733 76.6828 81.8079C76.9518 81.9424 77.0962 81.968 77.5359 81.968C77.9756 81.968 78.1134 81.936 78.389 81.795C78.8353 81.5644 83.5931 76.9071 83.8031 76.4971C84.0918 75.9269 84.0328 75.1325 83.6718 74.6393C83.5668 74.5047 80.699 71.8141 77.2931 68.6622C73.8871 65.5168 66.9506 59.1041 61.8843 54.4211C56.8181 49.7318 50.5706 43.9597 48.0046 41.583C44.7103 38.5336 43.26 37.2332 43.0565 37.1435C42.6496 36.9641 42.21 36.9769 41.7834 37.1819L41.4421 37.3485L40.2609 36.1954L39.0796 35.0422L43.9556 30.2824L48.825 25.5289L38.2725 15.2277C32.4712 9.56458 27.7134 4.93285 27.6937 4.93285C27.674 4.93285 22.5684 9.90411 16.3406 15.9836Z" fill="#9D8329"/>
<path d="M1.5027 30.4745C0.551142 31.4483 0.0983294 32.4092 0.0195794 33.6328C-0.0460456 34.6514 0.236142 35.6764 0.820204 36.5541C1.10895 36.9897 15.2183 50.8336 16.0058 51.455C16.5636 51.897 17.0361 52.1405 17.7186 52.3519C18.1386 52.48 18.3421 52.4992 19.1296 52.4928C19.9499 52.4928 20.1008 52.4736 20.5733 52.3134C20.8621 52.2174 21.2755 52.038 21.4986 51.9227C21.8596 51.7241 22.8177 50.9553 23.1261 50.6158L23.2574 50.4749L12.6918 40.1608L2.12614 29.8467L1.5027 30.4745Z" fill="#9D8329"/>
</g>
</g>
<defs>
<clipPath id="clip0_52_97">
<rect width="84" height="82" fill="white"/>
</clipPath>
<clipPath id="clip1_52_97">
<rect width="84" height="82" fill="white"/>
</clipPath>
</defs>
</svg>
