<svg width="89" height="82" viewBox="0 0 89 82" fill="none" xmlns="http://www.w3.org/2000/svg">
<path d="M39.0842 3.24988C42.445 3.17961 45.8518 3.6046 49.128 4.26399C49.2743 4.29335 49.4206 4.32271 49.5714 4.35296C54.8782 5.45204 59.6458 7.84521 63.546 11.316C63.7067 11.4536 63.8673 11.5912 64.0328 11.733C69.2011 16.2816 71.8444 22.4993 74.0925 28.6077C75.1989 31.5946 76.8 34.0581 79.9478 35.5076C80.9566 35.941 82.0062 36.2098 83.0874 36.4452C83.9464 36.6388 84.5678 36.8789 85.262 37.392C85.262 37.5002 85.262 37.6085 85.262 37.72C84.792 37.9365 84.4509 37.897 83.9249 37.8885C83.7221 37.8862 83.5192 37.884 83.3101 37.8817C82.9822 37.8778 82.9822 37.8778 82.6477 37.8737C79.8736 37.8555 77.153 38.0491 74.404 38.376C74.9914 38.4301 75.5788 38.4842 76.184 38.54C75.5853 39.0916 75.5853 39.0916 74.9582 39.2133C74.8222 39.2418 74.6862 39.2703 74.546 39.2997C74.4 39.3297 74.2541 39.3598 74.1037 39.3907C72.5659 39.7395 71.2683 40.2506 69.8761 40.9413C68.8874 41.4241 67.8843 41.8815 66.8835 42.3427C66.7125 42.4217 66.7125 42.4217 66.5381 42.5023C64.8404 43.2859 63.1323 44.0456 61.41 44.7822C61.214 44.8661 61.018 44.95 60.8161 45.0364C59.4225 45.6277 58.0166 46.1886 56.604 46.74C56.6628 47.173 56.7215 47.6059 56.782 48.052C56.2648 48.2581 55.9283 48.38 55.358 48.38C55.3746 48.6641 55.3746 48.6641 55.3914 48.954C55.4526 50.0065 54.8839 50.9564 54.2981 51.8266C53.0001 53.7657 52.261 55.9187 51.442 58.056C50.0082 61.7858 48.5723 65.445 46.102 68.716C46.2838 68.8581 46.2838 68.8581 46.4692 69.003C46.814 69.372 46.814 69.372 46.8321 69.6968C46.5405 70.1893 46.1311 70.4131 45.6348 70.7352C44.6731 71.3805 43.8438 72.0875 43.0204 72.8775C42.0996 73.7545 41.1453 74.5357 40.0834 75.2657C39.9609 75.3501 39.8384 75.4344 39.7122 75.5213C38.8545 76.096 38.8545 76.096 38.448 76.096C38.4563 76.2087 38.4646 76.3214 38.4731 76.4375C38.4795 76.5852 38.4859 76.733 38.4925 76.8852C38.5008 77.0318 38.5091 77.1783 38.5176 77.3292C38.448 77.736 38.448 77.736 38.1671 78.0147C36.5485 78.8156 33.7615 79.0205 31.9809 78.5541C31.4893 78.2857 31.2967 77.8807 31.0416 77.4221C30.7373 77.0016 30.4177 76.8244 29.9485 76.5675C29.2134 76.1587 29.2134 76.1587 29.0029 75.5425C29.0084 75.3294 29.0084 75.3294 29.014 75.112C29.5427 75.0038 30.0714 74.8955 30.616 74.784C30.3756 74.2664 30.3756 74.2664 29.904 73.8C29.3513 73.675 28.8225 73.7068 28.2575 73.7385C28.1079 73.7429 27.9583 73.7474 27.8042 73.752C27.4359 73.7635 27.0679 73.7812 26.7 73.8C26.6415 73.6774 26.583 73.5548 26.5227 73.4284C25.9724 72.3786 25.5976 71.8614 24.3965 71.4733C23.8408 71.2712 23.6009 70.996 23.318 70.52C23.2735 69.9767 23.2735 69.9767 23.318 69.536C23.553 69.4278 23.788 69.3195 24.03 69.208C23.9607 69.122 23.8914 69.0359 23.8201 68.9473C23.0273 67.9358 22.339 66.8856 21.6639 65.8059C21.2464 65.1431 20.8117 64.5141 20.3143 63.8985C19.4839 62.8346 19.0883 61.716 18.9125 60.4237C18.6588 58.9647 17.4357 57.9272 16.198 57.072C16.0585 56.9739 15.919 56.8758 15.7753 56.7747C15.6798 56.7105 15.5844 56.6462 15.486 56.58C15.5448 56.3094 15.6035 56.0388 15.664 55.76C14.9317 55.8336 14.2308 55.9204 13.5169 56.088C10.8498 56.6476 6.9179 56.7489 4.4257 55.5819C4.12741 55.4012 4.12741 55.4012 3.73804 55.104C3.78616 54.5045 3.82795 54.2031 4.29151 53.7657C4.44662 53.6628 4.60173 53.5598 4.76154 53.4537C4.92215 53.3423 5.08277 53.2309 5.24826 53.1161C5.39602 53.0145 5.54379 52.9128 5.69604 52.808C6.55271 52.1174 6.86891 51.5529 7.00809 50.5082C7.05175 48.4778 6.53655 46.5773 6.05204 44.608C3.83195 35.4601 4.20557 25.5635 9.67253 17.4019C10.6618 15.9738 11.7844 14.6814 13.0385 13.4416C13.3593 13.1386 13.3593 13.1386 13.528 12.792C13.6455 12.792 13.763 12.792 13.884 12.792C13.9203 12.7026 13.9565 12.6131 13.9939 12.521C14.3377 11.9832 14.8181 11.621 15.3303 11.2237C15.4405 11.1378 15.5506 11.052 15.6641 10.9635C22.4217 5.78598 30.4208 3.65989 39.0842 3.24988ZM71.556 38.54C71.556 38.5941 71.556 38.6482 71.556 38.704C72.026 38.704 72.4959 38.704 72.98 38.704C72.98 38.6499 72.98 38.5958 72.98 38.54C72.5101 38.54 72.0402 38.54 71.556 38.54ZM36.2668 46.5318C34.6387 47.2674 33.0014 47.9849 31.3614 48.6977C31.2252 48.757 31.0889 48.8162 30.9486 48.8772C28.0716 50.1265 25.1803 51.3402 22.25 52.48C22.3088 52.6424 22.3675 52.8047 22.428 52.972C23.4854 52.8096 23.4854 52.8096 24.564 52.644C24.742 53.136 24.742 53.136 24.742 53.628C24.1181 53.9499 23.4723 54.1133 22.784 54.284C23.1322 55.9144 23.5143 57.3684 24.7984 58.5884C25.5997 59.3575 25.5997 59.3575 25.7099 59.9522C25.632 60.352 25.632 60.352 25.276 60.6492C25.0998 60.7456 25.0998 60.7456 24.92 60.844C25.3111 61.7938 25.8376 62.6761 26.3556 63.5707C26.5296 63.8719 26.7016 64.1741 26.8735 64.4763C28.2831 66.9284 29.6989 69.3434 32.6625 70.2844C33.6983 70.6399 34.1257 71.1583 34.7434 71.9678C35.1912 72.4622 35.5641 72.6248 36.2543 72.6917C38.5513 72.4712 40.7483 69.6841 42.1304 68.1522C42.3882 67.8495 42.6438 67.5453 42.898 67.24C43.0805 67.0272 43.2632 66.8145 43.4459 66.6019C46.7521 62.7257 50.4711 57.1479 50.196 51.988C50.1373 51.8256 50.0786 51.6633 50.018 51.496C50.1175 51.0533 50.1175 51.0533 50.2739 50.5632C50.3251 50.4003 50.3762 50.2373 50.429 50.0693C50.4696 49.9448 50.5102 49.8203 50.552 49.692C50.3868 49.5854 50.3868 49.5854 50.2183 49.4767C49.84 49.2 49.84 49.2 49.484 48.708C49.3861 48.7294 49.2882 48.7508 49.1873 48.7729C42.7383 50.1651 36.1556 50.6396 29.548 50.84C29.7893 50.3954 30.0245 50.3689 30.5215 50.1846C30.6905 50.1211 30.8595 50.0576 31.0336 49.9921C31.3115 49.8892 31.3115 49.8892 31.595 49.7842C31.9917 49.6344 32.3883 49.4843 32.7847 49.3339C32.9882 49.2568 33.1917 49.1796 33.4014 49.1001C34.2908 48.7601 35.1745 48.4088 36.0562 48.052C36.2338 47.9801 36.4114 47.9083 36.5944 47.8343C37.7726 47.3535 38.9425 46.8578 40.1098 46.355C47.7666 43.0581 55.7795 40.2955 64.08 38.704C64.08 38.6499 64.08 38.5958 64.08 38.54C54.7436 38.3446 44.4105 42.8522 36.2668 46.5318Z" fill="#9D8329"/>
<path d="M22.072 52.48C22.1895 52.5882 22.307 52.6965 22.428 52.808C22.947 52.7749 22.947 52.7749 23.5183 52.6645C23.7133 52.6311 23.9084 52.5977 24.1093 52.5633C24.2594 52.5358 24.4094 52.5083 24.564 52.48C24.7532 52.7772 24.7532 52.7772 24.92 53.136C24.678 53.8049 24.3321 53.9458 23.674 54.284C23.1623 54.325 23.1623 54.325 22.784 54.284C22.8247 54.3829 22.8653 54.4819 22.9071 54.5838C22.9839 54.7804 22.9839 54.7804 23.0622 54.981C23.1138 55.1104 23.1654 55.2397 23.2186 55.373C23.3261 55.7913 23.2909 56.0147 23.14 56.416C22.6903 55.4047 22.5504 54.7045 22.784 53.628C22.7253 53.6821 22.6666 53.7362 22.606 53.792C22.2389 53.505 22.2389 53.505 21.894 53.136C21.9385 52.767 21.9385 52.767 22.072 52.48Z" fill="#9D8329"/>
<path d="M32.3961 49.692C32.2786 49.9085 32.1611 50.1249 32.0401 50.348C33.5086 50.4021 34.9771 50.4562 36.4901 50.512C36.4901 50.5661 36.4901 50.6202 36.4901 50.676C34.174 50.8345 31.87 50.8594 29.5481 50.84C29.6068 50.6776 29.6656 50.5153 29.7261 50.348C30.2372 50.1148 30.2372 50.1148 30.872 49.897C31.081 49.8234 31.29 49.7499 31.5054 49.6741C32.0401 49.528 32.0401 49.528 32.3961 49.692Z" fill="#9D8329"/>
<path d="M82.9481 36.572C83.9105 36.643 84.5063 36.8315 85.2621 37.392C85.2621 37.5003 85.2621 37.6085 85.2621 37.72C84.6691 37.9932 84.0045 37.9037 83.3528 37.9C83.1224 37.8997 83.1224 37.8997 82.8874 37.8993C82.3959 37.8984 81.9044 37.8964 81.4129 37.8943C81.08 37.8934 80.7472 37.8927 80.4144 37.892C79.5976 37.8902 78.7809 37.8874 77.9641 37.884C77.9641 37.8299 77.9641 37.7758 77.9641 37.72C79.1135 37.5834 80.2444 37.5381 81.4017 37.5355C81.54 37.5348 81.6782 37.534 81.8206 37.5333C82.5168 37.5349 83.1582 37.5625 83.8381 37.72C83.8381 37.5035 83.8381 37.2871 83.8381 37.064C83.5444 36.9558 83.2507 36.8475 82.9481 36.736C82.9481 36.6819 82.9481 36.6278 82.9481 36.572Z" fill="#9D8329"/>
<path d="M72.2681 38.376C73.5603 38.4301 74.8526 38.4842 76.1841 38.54C75.6092 39.0696 75.3605 39.1477 74.5932 39.319C74.408 39.3621 74.2228 39.4052 74.0321 39.4497C73.5398 39.5203 73.2647 39.512 72.8021 39.36C73.1545 39.2517 73.5069 39.1435 73.8701 39.032C72.6953 38.9779 71.5205 38.9237 70.3101 38.868C70.6661 38.54 70.6661 38.54 71.0513 38.5079C71.2681 38.5137 71.2681 38.5137 71.4893 38.5195C71.7075 38.5239 71.7075 38.5239 71.9301 38.5284C72.0974 38.5342 72.0974 38.5342 72.2681 38.54C72.2681 38.4859 72.2681 38.4317 72.2681 38.376Z" fill="#9D8329"/>
<path d="M6.40804 23.944C6.46677 23.944 6.52551 23.944 6.58604 23.944C6.64478 24.5934 6.70351 25.2428 6.76403 25.912C6.58781 25.9661 6.41159 26.0202 6.23003 26.076C5.91551 27.4942 5.62748 28.9169 5.34004 30.34C5.2813 30.34 5.22256 30.34 5.16204 30.34C5.10524 29.1957 5.31925 28.1651 5.58479 27.0497C5.62425 26.8775 5.66372 26.7053 5.70438 26.5279C5.90685 25.6561 6.12695 24.7971 6.40804 23.944Z" fill="#9D8329"/>
<path d="M6.94196 47.8879C7.11818 47.9421 7.2944 47.9962 7.47596 48.0519C7.47596 49.0802 7.47596 50.1085 7.47596 51.1679C7.65218 51.2221 7.8284 51.2762 8.00996 51.3319C7.95122 51.4943 7.89248 51.6567 7.83196 51.8239C7.65574 51.7698 7.47952 51.7157 7.29796 51.6599C7.23922 51.8223 7.18048 51.9847 7.11996 52.1519C6.75283 52.3467 6.75283 52.3467 6.40796 52.4799C6.44612 52.3925 6.48428 52.3051 6.5236 52.2151C6.91893 51.2352 7.00946 50.3929 6.97533 49.3537C6.97292 49.2117 6.97052 49.0698 6.96803 48.9235C6.96182 48.5783 6.95225 48.2331 6.94196 47.8879Z" fill="#9D8329"/>
<path d="M19.0459 60.844C19.4019 61.172 19.4019 61.172 19.4019 61.664C19.5781 61.6099 19.7543 61.5558 19.9359 61.5C20.0534 61.5541 20.1709 61.6082 20.2919 61.664C20.2857 61.8181 20.2857 61.8181 20.2794 61.9753C20.2762 62.1094 20.273 62.2434 20.2696 62.3815C20.2655 62.5147 20.2614 62.6479 20.2571 62.7851C20.2539 63.175 20.2539 63.175 20.6479 63.468C20.4717 63.5221 20.2955 63.5762 20.1139 63.632C19.5678 62.7095 19.2434 61.8782 19.0459 60.844Z" fill="#9D8329"/>
<path d="M79.032 35.26C79.8723 35.513 80.7082 35.7648 81.524 36.08C81.0528 36.3196 80.8308 36.408 80.278 36.408C80.278 36.2456 80.278 36.0833 80.278 35.916C80.1018 35.916 79.9256 35.916 79.744 35.916C79.6853 36.0784 79.6265 36.2407 79.566 36.408C79.3898 36.3539 79.2136 36.2998 79.032 36.244C79.1495 36.1358 79.267 36.0275 79.388 35.916C79.2118 35.7536 79.0356 35.5913 78.854 35.424C78.9127 35.3699 78.9715 35.3158 79.032 35.26Z" fill="#9D8329"/>
<path d="M37.7361 75.4399C38.5816 75.5629 38.5816 75.5629 38.9821 75.9319C38.8059 75.9861 38.6296 76.0402 38.4481 76.0959C38.4481 76.6371 38.4481 77.1783 38.4481 77.7359C38.0956 77.8983 38.0956 77.8983 37.7361 78.0639C37.8291 77.6108 37.9334 77.1905 38.0921 76.7519C38.0372 76.4114 38.0372 76.4114 37.9252 76.0652C37.8628 75.8589 37.8004 75.6525 37.7361 75.4399Z" fill="#9D8329"/>
<path d="M82.948 36.572C83.9104 36.643 84.5061 36.8315 85.262 37.392C85.262 37.5003 85.262 37.6085 85.262 37.72C84.7921 37.72 84.3222 37.72 83.838 37.72C83.838 37.5035 83.838 37.2871 83.838 37.064C83.3974 36.9017 83.3974 36.9017 82.948 36.736C82.948 36.6819 82.948 36.6278 82.948 36.572Z" fill="#9D8329"/>
<path d="M25.6319 5.57605C25.7494 5.63017 25.8669 5.68429 25.9879 5.74005C25.9292 5.90241 25.8705 6.06477 25.8099 6.23205C25.4671 6.34032 25.4671 6.34032 25.0423 6.4063C24.59 6.47863 24.2484 6.53959 23.8443 6.74391C23.41 6.92359 23.2288 6.84519 22.7839 6.72405C23.2505 6.52773 23.7177 6.33326 24.1857 6.1398C24.385 6.05561 24.385 6.05561 24.5883 5.96971C24.9316 5.82865 25.2815 5.70132 25.6319 5.57605Z" fill="#9D8329"/>
<path d="M11.392 55.76C12.3319 55.76 13.2717 55.76 14.24 55.76C13.2456 56.2181 12.3459 56.2852 11.2474 56.3443C11.1241 56.3513 11.0007 56.3584 10.8737 56.3657C10.5718 56.383 10.2699 56.3996 9.96802 56.416C9.96802 56.3078 9.96802 56.1995 9.96802 56.088C10.4379 56.0339 10.9079 55.9798 11.392 55.924C11.392 55.8699 11.392 55.8158 11.392 55.76Z" fill="#9D8329"/>
<path d="M41.652 72.98C41.9457 73.0341 42.2394 73.0882 42.542 73.144C41.9971 73.7894 41.5645 74.2397 40.762 74.62C40.8521 74.0057 40.968 73.7159 41.474 73.308C41.5327 73.1997 41.5914 73.0915 41.652 72.98Z" fill="#9D8329"/>
<path d="M60.1641 8.85596C60.8435 9.11098 61.2663 9.51785 61.7661 10.004C61.1046 10.0369 60.9167 10.0289 60.3421 9.67596C60.1659 9.75714 60.1659 9.75714 59.9861 9.83996C60.0448 9.51524 60.1036 9.19052 60.1641 8.85596Z" fill="#9D8329"/>
<path d="M41.1179 69.0439C41.1179 69.5544 41.0367 70.0184 40.9399 70.5199C40.8334 70.4827 40.727 70.4455 40.6173 70.4072C40.4888 70.3903 40.3603 70.3734 40.2279 70.3559C39.9125 70.5781 39.9125 70.5781 39.6939 70.8479C39.5764 70.7938 39.4589 70.7397 39.3379 70.6839C39.9253 70.1427 40.5127 69.6015 41.1179 69.0439Z" fill="#9D8329"/>
<path d="M49.662 54.448C49.7207 54.448 49.7794 54.448 49.84 54.448C49.8654 55.8537 49.8654 55.8537 49.662 56.416C49.6069 56.5885 49.5518 56.761 49.4951 56.9387C49.306 57.4 49.306 57.4 48.95 57.564C49.0811 56.5005 49.3688 55.4824 49.662 54.448Z" fill="#9D8329"/>
<path d="M15.8421 55.76C16.077 55.8141 16.312 55.8682 16.5541 55.924C16.5541 56.3028 16.5541 56.6817 16.5541 57.072C16.1202 56.9388 16.1202 56.9388 15.6641 56.744C15.6053 56.5816 15.5466 56.4193 15.4861 56.252C15.6036 56.0896 15.721 55.9273 15.8421 55.76Z" fill="#9D8329"/>
<path d="M33.8201 70.848C34.4018 71.3642 34.9114 71.913 35.4221 72.488C34.6711 72.4094 34.2123 72.2968 33.6421 71.832C33.7008 71.5073 33.7596 71.1826 33.8201 70.848Z" fill="#9D8329"/>
<path d="M22.072 52.48C22.1895 52.5882 22.307 52.6965 22.428 52.808C22.947 52.7749 22.947 52.7749 23.5183 52.6645C23.7133 52.6311 23.9084 52.5977 24.1093 52.5633C24.2594 52.5358 24.4094 52.5083 24.564 52.48C24.208 52.808 24.208 52.808 23.6629 52.972C23.1184 53.0798 23.1184 53.0798 22.962 53.464C22.8446 53.464 22.7271 53.464 22.606 53.464C22.5473 53.5722 22.4886 53.6805 22.428 53.792C22.25 53.464 22.072 53.136 21.894 52.808C21.9528 52.6997 22.0115 52.5915 22.072 52.48Z" fill="#9D8329"/>
<path d="M48.5939 41.492C48.6527 41.6003 48.7114 41.7085 48.7719 41.82C47.8908 42.0636 47.8908 42.0636 46.9919 42.312C47.3445 41.4071 47.5585 41.2229 48.5939 41.492Z" fill="#9D8329"/>
<path d="M26.166 50.348C26.522 50.512 26.522 50.512 26.7 50.84C25.9951 51.1106 25.2902 51.3812 24.564 51.66C24.564 51.4977 24.564 51.3353 24.564 51.168C24.7989 51.168 25.0339 51.168 25.276 51.168C25.3347 51.0057 25.3934 50.8433 25.454 50.676C25.6302 50.6219 25.8064 50.5678 25.988 50.512C26.0467 50.4579 26.1054 50.4038 26.166 50.348Z" fill="#9D8329"/>
<path d="M18.6899 8.85596C18.8074 8.91008 18.9249 8.9642 19.0459 9.01996C18.4578 9.96319 18.4578 9.96319 17.8666 10.1577C17.4439 10.168 17.4439 10.168 17.0879 10.004C17.6166 9.62512 18.1452 9.24628 18.6899 8.85596Z" fill="#9D8329"/>
<path d="M23.2736 6.86755C23.4158 6.87051 23.5581 6.87347 23.7047 6.87652C23.812 6.88032 23.9194 6.88413 24.0301 6.88805C23.8538 6.94217 23.6776 6.99629 23.4961 7.05205C23.4373 7.21441 23.3786 7.37677 23.3181 7.54405C23.1418 7.48993 22.9656 7.43581 22.7841 7.38005C22.6023 7.42571 22.6023 7.42571 22.4169 7.4723C22.2462 7.50782 22.2462 7.50782 22.0721 7.54405C21.9546 7.43581 21.8371 7.32757 21.7161 7.21605C22.2612 6.92346 22.6454 6.85053 23.2736 6.86755Z" fill="#9D8329"/>
<path d="M50.018 51.824C50.1942 51.824 50.3704 51.824 50.552 51.824C50.6632 52.2032 50.6632 52.2032 50.73 52.644C50.5538 52.8875 50.5538 52.8875 50.374 53.136C50.2562 53.4715 50.2562 53.4715 50.1737 53.8227C50.1223 54.0291 50.0709 54.2354 50.018 54.448C49.8109 53.8659 49.8536 53.3724 49.9178 52.767C49.936 52.5902 49.9541 52.4135 49.9728 52.2314C49.9877 52.097 50.0026 51.9625 50.018 51.824Z" fill="#9D8329"/>
<path d="M66.0379 13.9399C66.3316 14.2105 66.6253 14.4811 66.9279 14.7599C66.8104 14.9764 66.6929 15.1929 66.5719 15.4159C66.5132 15.1995 66.4544 14.983 66.3939 14.7599C66.2177 14.8141 66.0415 14.8682 65.8599 14.9239C65.7424 14.8157 65.6249 14.7075 65.5039 14.5959C65.6214 14.5959 65.7389 14.5959 65.8599 14.5959C65.9186 14.3795 65.9774 14.163 66.0379 13.9399Z" fill="#9D8329"/>
<path d="M60.5201 39.688C60.2827 39.7973 60.0454 39.9067 59.8081 40.016C59.6979 40.0803 59.5878 40.1445 59.4743 40.2107C58.9499 40.3955 58.5658 40.2926 58.0281 40.18C58.7869 39.7139 59.6237 39.3576 60.5201 39.688Z" fill="#9D8329"/>
<path d="M64.97 12.792C65.415 13.1712 65.415 13.1712 65.86 13.612C65.86 13.7744 65.86 13.9367 65.86 14.104C65.8013 13.9958 65.7425 13.8875 65.682 13.776C65.4471 13.8301 65.2121 13.8842 64.97 13.94C64.7698 13.161 64.7698 13.161 64.97 12.792Z" fill="#9D8329"/>
<path d="M30.6159 74.62C30.7334 74.62 30.8509 74.62 30.9719 74.62C30.9719 74.7824 30.9719 74.9447 30.9719 75.112C30.8046 75.1624 30.8046 75.1624 30.634 75.2139C30.4885 75.258 30.343 75.3022 30.1932 75.3477C30.0486 75.3915 29.9041 75.4353 29.7551 75.4804C29.3681 75.5961 29.3681 75.5961 29.0139 75.768C29.0139 75.5515 29.0139 75.335 29.0139 75.112C29.5426 75.0038 30.0712 74.8955 30.6159 74.784C30.6159 74.7299 30.6159 74.6758 30.6159 74.62Z" fill="#9D8329"/>
<path d="M46.4581 62.484C46.7181 62.9182 46.8141 63.1227 46.8141 63.632C46.4617 63.6861 46.1092 63.7402 45.7461 63.796C45.9463 63.3086 46.1418 62.9212 46.4581 62.484Z" fill="#9D8329"/>
<path d="M5.69591 52.808C5.87213 52.8621 6.04835 52.9162 6.22991 52.972C6.00314 53.3063 5.76522 53.6343 5.51791 53.956C5.40043 53.956 5.28295 53.956 5.16191 53.956C5.16191 53.8477 5.16191 53.7395 5.16191 53.628C5.04443 53.5739 4.92695 53.5197 4.80591 53.464C5.21753 53.1257 5.21753 53.1257 5.69591 52.808Z" fill="#9D8329"/>
<path d="M23.8521 68.7161C24.0871 68.7702 24.322 68.8243 24.5641 68.8801C24.5054 69.0965 24.4466 69.313 24.3861 69.5361C24.1512 69.5902 23.9162 69.6443 23.6741 69.7001C23.6154 69.9707 23.5566 70.2413 23.4961 70.5201C23.4374 70.5201 23.3786 70.5201 23.3181 70.5201C23.3181 70.1953 23.3181 69.8706 23.3181 69.5361C23.5531 69.4278 23.788 69.3196 24.0301 69.2081C23.9714 69.0457 23.9126 68.8833 23.8521 68.7161Z" fill="#9D8329"/>
<path d="M29.1919 75.932C29.7815 75.8807 29.7815 75.8807 30.4379 75.932C30.7939 76.3215 30.7939 76.3215 30.9719 76.752C30.9132 76.8602 30.8544 76.9685 30.7939 77.08C30.5264 76.9201 30.2595 76.7594 29.9929 76.5982C29.8442 76.5088 29.6955 76.4194 29.5423 76.3273C29.4267 76.2509 29.311 76.1746 29.1919 76.096C29.1919 76.0419 29.1919 75.9878 29.1919 75.932Z" fill="#9D8329"/>
<path d="M44.3219 70.848C44.4394 71.0104 44.5568 71.1727 44.6779 71.34C44.1492 71.7459 44.1492 71.7459 43.6099 72.16C43.5511 71.8894 43.4924 71.6188 43.4319 71.34C43.7256 71.1777 44.0193 71.0153 44.3219 70.848Z" fill="#9D8329"/>
<path d="M44.1439 65.6C44.3219 65.928 44.3219 65.928 44.1773 66.338C43.9659 66.748 43.9659 66.748 43.6099 67.076C43.4337 67.076 43.2575 67.076 43.0759 67.076C43.3477 66.5125 43.7166 66.0724 44.1439 65.6Z" fill="#9D8329"/>
<path d="M24.7421 52.808C24.8008 52.9162 24.8596 53.0245 24.9201 53.136C24.7177 53.6955 24.5564 53.8114 24.0301 54.12C23.9126 54.12 23.7951 54.12 23.6741 54.12C23.6154 53.9576 23.5566 53.7953 23.4961 53.628C23.6136 53.5197 23.7311 53.4115 23.8521 53.3C24.0283 53.3 24.2045 53.3 24.3861 53.3C24.5036 53.1376 24.6211 52.9753 24.7421 52.808Z" fill="#9D8329"/>
<path d="M53.044 39.688C53.9118 39.975 53.9118 39.975 54.112 40.344C53.5833 40.4522 53.0547 40.5605 52.51 40.672C52.51 40.344 52.51 40.344 52.777 40.0877C52.9092 39.971 52.9092 39.971 53.044 39.852C53.044 39.7979 53.044 39.7437 53.044 39.688Z" fill="#9D8329"/>
<path d="M17.266 56.744C17.622 57.236 17.622 57.236 17.622 57.728C17.7394 57.8363 17.8569 57.9445 17.978 58.056C17.444 58.056 17.444 58.056 17.1971 57.8408C16.9827 57.5845 16.7683 57.3283 16.554 57.072C16.7889 57.1261 17.0239 57.1803 17.266 57.236C17.266 57.0737 17.266 56.9113 17.266 56.744Z" fill="#9D8329"/>
<path d="M6.05204 52.808C6.22826 52.8621 6.40448 52.9162 6.58604 52.972C6.58604 53.0802 6.58604 53.1885 6.58604 53.3C6.70352 53.4082 6.821 53.5165 6.94204 53.628C6.09654 53.8125 6.09654 53.8125 5.69604 53.628C5.81352 53.3574 5.931 53.0868 6.05204 52.808Z" fill="#9D8329"/>
<path d="M47.882 48.5439C47.9407 48.6522 47.9995 48.7604 48.06 48.8719C48.4204 48.9789 48.4204 48.9789 48.772 49.0359C47.3416 49.4093 47.3416 49.4093 46.636 49.1999C46.9297 49.1458 47.2234 49.0917 47.526 49.0359C47.526 48.9277 47.526 48.8195 47.526 48.7079C47.6435 48.6538 47.7609 48.5997 47.882 48.5439Z" fill="#9D8329"/>
<path d="M46.1021 69.0439C46.4545 69.2063 46.4545 69.2063 46.8141 69.3719C46.7473 69.6897 46.7473 69.6897 46.6361 70.0279C46.4598 70.1091 46.4598 70.1091 46.2801 70.1919C46.2213 69.8131 46.1626 69.4343 46.1021 69.0439Z" fill="#9D8329"/>
<path d="M15.842 55.104C16.0183 55.104 16.1945 55.104 16.376 55.104C16.4935 55.2664 16.611 55.4287 16.732 55.596C16.6733 55.7584 16.6146 55.9207 16.554 56.088C16.3778 56.088 16.2016 56.088 16.02 56.088C15.9613 55.7633 15.9026 55.4386 15.842 55.104Z" fill="#9D8329"/>
<path d="M55.002 47.724C55.7949 47.8864 55.7949 47.8864 56.604 48.052C55.8601 48.3947 55.7488 48.4071 55.002 48.216C55.002 48.0536 55.002 47.8913 55.002 47.724Z" fill="#9D8329"/>
<path d="M40.406 46.248C40.3472 46.4645 40.2885 46.681 40.228 46.904C39.758 46.904 39.2881 46.904 38.804 46.904C39.2607 46.4833 39.7499 46.248 40.406 46.248Z" fill="#9D8329"/>
<path d="M44.3219 42.64C44.3219 42.7483 44.3219 42.8565 44.3219 42.968C44.4981 43.0221 44.6743 43.0763 44.8559 43.132C44.5039 43.2519 44.1473 43.3607 43.7879 43.46C43.6704 43.4059 43.5529 43.3518 43.4319 43.296C43.4906 43.1337 43.5494 42.9713 43.6099 42.804C43.9659 42.64 43.9659 42.64 44.3219 42.64Z" fill="#9D8329"/>
<path d="M74.5821 30.34C74.9654 30.77 75.1874 31.1016 75.2941 31.652C75.1178 31.652 74.9416 31.652 74.7601 31.652C74.7601 31.5437 74.7601 31.4355 74.7601 31.324C74.6426 31.324 74.5251 31.324 74.4041 31.324C74.4628 30.9992 74.5215 30.6745 74.5821 30.34Z" fill="#9D8329"/>
<path d="M34.8881 48.38C35.0056 48.4341 35.123 48.4882 35.2441 48.544C34.9215 48.872 34.9215 48.872 34.5321 49.2C34.3559 49.2 34.1796 49.2 33.9981 49.2C33.8806 49.0918 33.7631 48.9835 33.6421 48.872C34.0521 48.6971 34.468 48.5335 34.8881 48.38Z" fill="#9D8329"/>
<path d="M58.74 44.936C59.274 45.264 59.274 45.264 59.452 45.592C59.0996 45.7003 58.7472 45.8085 58.384 45.92C58.5398 45.1205 58.5398 45.1205 58.74 44.936Z" fill="#9D8329"/>
<path d="M70.3099 39.8521C70.5448 40.0144 70.7798 40.1768 71.0219 40.3441C70.1764 40.8361 70.1764 40.8361 69.7759 40.8361C69.7759 40.6196 69.7759 40.4031 69.7759 40.1801C69.9521 40.1801 70.1283 40.1801 70.3099 40.1801C70.3099 40.0718 70.3099 39.9636 70.3099 39.8521Z" fill="#9D8329"/>
<path d="M7.29789 21.812C7.55234 22.1981 7.66931 22.3828 7.58714 22.837C7.55043 22.9317 7.51372 23.0264 7.47589 23.124C7.29967 23.124 7.12345 23.124 6.94189 23.124C7.09764 22.181 7.09764 22.181 7.29789 21.812Z" fill="#9D8329"/>
<path d="M45.034 64.452C45.2102 64.6144 45.3865 64.7767 45.568 64.944C45.39 65.272 45.39 65.272 44.8449 65.4565C44.6723 65.5039 44.4998 65.5512 44.322 65.6C44.5363 65.1911 44.7589 64.8323 45.034 64.452Z" fill="#9D8329"/>
<path d="M28.48 49.2C28.5387 49.3082 28.5975 49.4164 28.658 49.528C28.7755 49.528 28.8929 49.528 29.014 49.528C29.014 49.4197 29.014 49.3115 29.014 49.2C29.2489 49.3082 29.4839 49.4164 29.726 49.528C29.1092 49.7715 29.1092 49.7715 28.48 50.02C28.48 49.7494 28.48 49.4788 28.48 49.2Z" fill="#9D8329"/>
<path d="M80.1001 35.752C80.7008 35.8417 81.0048 35.925 81.5241 36.244C81.1717 36.3522 80.8192 36.4604 80.4561 36.572C80.3386 36.3014 80.2211 36.0308 80.1001 35.752Z" fill="#9D8329"/>
<path d="M77.7859 34.4399C78.4027 34.7647 78.4027 34.7647 79.0319 35.0959C78.6981 35.2702 78.6981 35.2702 78.3199 35.4239C78.2024 35.3698 78.0849 35.3157 77.9639 35.2599C77.8526 34.8397 77.8526 34.8397 77.7859 34.4399Z" fill="#9D8329"/>
<path d="M75.2939 31.652C75.8423 32.1067 76.1284 32.4824 76.3619 33.128C75.9281 32.9435 75.9281 32.9435 75.4719 32.636C75.3273 32.1132 75.3273 32.1132 75.2939 31.652Z" fill="#9D8329"/>
<path d="M52.866 5.41199C53.5689 5.50236 54.1741 5.63984 54.824 5.90399C54.4902 6.07824 54.4902 6.07824 54.112 6.23199C53.9945 6.17787 53.877 6.12375 53.756 6.06799C53.756 5.95975 53.756 5.85151 53.756 5.73999C53.4623 5.68587 53.1686 5.63175 52.866 5.57599C52.866 5.52187 52.866 5.46775 52.866 5.41199Z" fill="#9D8329"/>
<path d="M41.118 73.636C41.3529 73.7442 41.5879 73.8525 41.83 73.964C41.4775 74.1805 41.1251 74.3969 40.762 74.62C40.9177 73.8205 40.9177 73.8205 41.118 73.636Z" fill="#9D8329"/>
<path d="M46.4581 67.24C46.5756 67.4024 46.693 67.5647 46.8141 67.732C46.6379 67.8944 46.4616 68.0567 46.2801 68.224C46.1626 68.1158 46.0451 68.0075 45.9241 67.896C45.9241 67.7336 45.9241 67.5713 45.9241 67.404C46.1003 67.3499 46.2765 67.2958 46.4581 67.24Z" fill="#9D8329"/>
<path d="M27.5899 65.6C27.7074 65.7082 27.8248 65.8165 27.9459 65.928C27.8791 66.3585 27.8791 66.3585 27.7679 66.748C27.6504 66.748 27.5329 66.748 27.4119 66.748C27.3531 66.5315 27.2944 66.315 27.2339 66.092C27.3514 66.092 27.4688 66.092 27.5899 66.092C27.5899 65.9296 27.5899 65.7673 27.5899 65.6Z" fill="#9D8329"/>
<path d="M50.3741 50.02C50.5448 50.6493 50.5791 50.8978 50.3741 51.496C50.1979 51.6043 50.0216 51.7125 49.8401 51.824C50.0163 51.2287 50.1925 50.6334 50.3741 50.02Z" fill="#9D8329"/>
<path d="M31.5061 50.3481C31.4473 50.4563 31.3886 50.5645 31.3281 50.6761C30.8581 50.6761 30.3882 50.6761 29.9041 50.6761C30.4447 50.1779 30.783 50.126 31.5061 50.3481Z" fill="#9D8329"/>
<path d="M9.9681 17.056C10.1461 17.548 10.1461 17.548 10.0126 17.8965C9.7901 18.204 9.7901 18.204 9.2561 18.368C9.45627 17.8806 9.65179 17.4932 9.9681 17.056Z" fill="#9D8329"/>
</svg>
