<svg width="63" height="83" viewBox="0 0 63 83" fill="none" xmlns="http://www.w3.org/2000/svg">
<path fill-rule="evenodd" clip-rule="evenodd" d="M46.7891 71.7875C42.9714 75.928 38.5254 79.6363 33.533 82.6354C32.9184 83.0812 32.0852 83.1352 31.4022 82.7029C24.0264 78.0625 17.832 72.49 12.9626 66.4311C6.24233 58.0959 2.01487 48.8556 0.567013 39.9531C-0.90816 30.9289 0.4714 22.2425 5.01302 15.184C6.80235 12.3943 9.09023 9.85457 11.8767 7.65933C18.2827 2.61364 25.5971 -0.0544231 32.891 -0.000386284C39.9118 0.0536505 46.8437 2.64066 52.8332 8.05109C54.9367 9.94238 56.7055 12.1106 58.1534 14.4612C63.0365 22.4181 64.0882 32.5635 61.9438 42.844C59.8266 53.0029 54.5679 63.324 46.7891 71.7672V71.7875ZM31.4978 16.0485C40.1576 16.0485 47.1715 22.9923 47.1715 31.5503C47.1715 40.1152 40.1508 47.0521 31.4978 47.0521C22.838 47.0521 15.8241 40.1152 15.8241 31.5503C15.8173 22.9855 22.838 16.0485 31.4978 16.0485Z" fill="#9D8329"/>
</svg>
