<svg width="140" height="140" viewBox="0 0 140 140" fill="none" xmlns="http://www.w3.org/2000/svg">
<path d="M42.8409 15.4545V62H35.3409L13.4091 30.2955H13.0227V62H4.59091V15.4545H12.1364L34.0455 47.1818H34.4545V15.4545H42.8409ZM52.0284 62V15.4545H60.4602V36.8409H61.0284L79.1875 15.4545H89.483L71.483 36.3409L89.642 62H79.5057L65.6193 42.0455L60.4602 48.1364V62H52.0284ZM120.386 28.25C120.174 26.2652 119.28 24.7197 117.705 23.6136C116.144 22.5076 114.114 21.9545 111.614 21.9545C109.856 21.9545 108.348 22.2197 107.091 22.75C105.833 23.2803 104.871 24 104.205 24.9091C103.538 25.8182 103.197 26.8561 103.182 28.0227C103.182 28.9924 103.402 29.8333 103.841 30.5455C104.295 31.2576 104.909 31.8636 105.682 32.3636C106.455 32.8485 107.311 33.2576 108.25 33.5909C109.189 33.9242 110.136 34.2045 111.091 34.4318L115.455 35.5227C117.212 35.9318 118.902 36.4848 120.523 37.1818C122.159 37.8788 123.621 38.7576 124.909 39.8182C126.212 40.8788 127.242 42.1591 128 43.6591C128.758 45.1591 129.136 46.9167 129.136 48.9318C129.136 51.6591 128.439 54.0606 127.045 56.1364C125.652 58.197 123.636 59.8106 121 60.9773C118.379 62.1288 115.205 62.7045 111.477 62.7045C107.856 62.7045 104.712 62.1439 102.045 61.0227C99.3939 59.9015 97.3182 58.2652 95.8182 56.1136C94.3333 53.9621 93.5303 51.3409 93.4091 48.25H101.705C101.826 49.8712 102.326 51.2197 103.205 52.2955C104.083 53.3712 105.227 54.1742 106.636 54.7045C108.061 55.2348 109.652 55.5 111.409 55.5C113.242 55.5 114.848 55.2273 116.227 54.6818C117.621 54.1212 118.712 53.3485 119.5 52.3636C120.288 51.3636 120.689 50.197 120.705 48.8636C120.689 47.6515 120.333 46.6515 119.636 45.8636C118.939 45.0606 117.962 44.3939 116.705 43.8636C115.462 43.3182 114.008 42.8333 112.341 42.4091L107.045 41.0455C103.212 40.0606 100.182 38.5682 97.9545 36.5682C95.7424 34.553 94.6364 31.8788 94.6364 28.5455C94.6364 25.803 95.3788 23.4015 96.8636 21.3409C98.3636 19.2803 100.402 17.6818 102.977 16.5455C105.553 15.3939 108.47 14.8182 111.727 14.8182C115.03 14.8182 117.924 15.3939 120.409 16.5455C122.909 17.6818 124.871 19.2652 126.295 21.2955C127.72 23.3106 128.455 25.6288 128.5 28.25H120.386Z" fill="black"/>
<path d="M138.947 75.2239H0V78.3582H138.947V75.2239Z" fill="#9D8329"/>
<path d="M3.25994 94.3124V108.858H1.93182V94.3124H3.25994ZM6.5554 101.159V102.352H2.31534V101.159H6.5554ZM18.7003 101.578C18.7003 103.093 18.4304 104.412 17.8906 105.534C17.3509 106.651 16.6075 107.518 15.6605 108.133C14.7183 108.744 13.634 109.05 12.4077 109.05C11.1813 109.05 10.0947 108.744 9.14773 108.133C8.20549 107.518 7.46449 106.651 6.92472 105.534C6.38968 104.412 6.12216 103.093 6.12216 101.578C6.12216 100.063 6.38968 98.7466 6.92472 97.6291C7.46449 96.507 8.20786 95.6405 9.15483 95.0297C10.1018 94.4142 11.1861 94.1064 12.4077 94.1064C13.634 94.1064 14.7183 94.4142 15.6605 95.0297C16.6075 95.6405 17.3509 96.507 17.8906 97.6291C18.4304 98.7466 18.7003 100.063 18.7003 101.578ZM17.4077 101.578C17.4077 100.276 17.1899 99.1609 16.7543 98.2328C16.3187 97.3001 15.7244 96.5875 14.9716 96.0951C14.2188 95.6026 13.3641 95.3564 12.4077 95.3564C11.456 95.3564 10.6037 95.6026 9.85085 96.0951C9.09801 96.5875 8.50142 97.2977 8.06108 98.2257C7.62547 99.1538 7.40767 100.271 7.40767 101.578C7.40767 102.88 7.62547 103.995 8.06108 104.923C8.49669 105.851 9.09091 106.564 9.84375 107.061C10.5966 107.553 11.4512 107.8 12.4077 107.8C13.3641 107.8 14.2188 107.553 14.9716 107.061C15.7292 106.569 16.3258 105.858 16.7614 104.93C17.197 103.998 17.4124 102.88 17.4077 101.578ZM21.6495 112.942V97.9416H22.8782V100.023H23.0273C23.1789 99.6959 23.3872 99.3621 23.6523 99.0212C23.9175 98.6755 24.2679 98.3844 24.7035 98.1476C25.1438 97.9109 25.6978 97.7925 26.3654 97.7925C27.265 97.7925 28.051 98.0292 28.7234 98.5027C29.4005 98.9715 29.926 99.6296 30.3001 100.477C30.6789 101.32 30.8683 102.302 30.8683 103.425C30.8683 104.551 30.6789 105.539 30.3001 106.386C29.926 107.234 29.4005 107.894 28.7234 108.368C28.051 108.841 27.2698 109.078 26.3796 109.078C25.7215 109.078 25.1699 108.96 24.7248 108.723C24.2844 108.486 23.927 108.195 23.6523 107.849C23.3825 107.499 23.1741 107.158 23.0273 106.827H22.9137V112.942H21.6495ZM22.8995 103.403C22.8995 104.284 23.0297 105.065 23.2901 105.747C23.5553 106.424 23.9341 106.957 24.4265 107.345C24.9237 107.729 25.525 107.92 26.2305 107.92C26.9549 107.92 27.5657 107.721 28.0629 107.324C28.5647 106.921 28.9459 106.379 29.2063 105.697C29.4715 105.016 29.604 104.251 29.604 103.403C29.604 102.565 29.4738 101.81 29.2134 101.138C28.9577 100.465 28.579 99.9327 28.0771 99.5397C27.5752 99.1419 26.9596 98.9431 26.2305 98.9431C25.5202 98.9431 24.9165 99.1348 24.4194 99.5184C23.9222 99.8971 23.5434 100.423 23.283 101.095C23.0273 101.763 22.8995 102.532 22.8995 103.403ZM34.9059 107.054L40.6658 97.9416H42.1786V108.851H40.9144V99.7385L35.1758 108.851H33.6417V97.9416H34.9059V107.054ZM44.2241 111.954V107.658H45.1687C45.4054 107.392 45.6114 107.106 45.7866 106.798C45.9618 106.49 46.1133 106.14 46.2411 105.747C46.3737 105.349 46.485 104.888 46.5749 104.362C46.6649 103.832 46.7406 103.214 46.8022 102.508L47.1999 97.9416H53.6559V107.658H55.2752V111.954H54.011V108.851H45.4954V111.954H44.2241ZM46.6246 107.658H52.3917V99.1348H48.3789L48.0522 102.508C47.9386 103.654 47.7776 104.653 47.5692 105.506C47.3609 106.358 47.046 107.075 46.6246 107.658ZM58.9489 107.054L64.7088 97.9416H66.2216V108.851H64.9574V99.7385L59.2188 108.851H57.6847V97.9416H58.9489V107.054ZM77.6065 97.9416V108.851H76.3352V97.9416H77.6065ZM77.1378 103.332V104.54C76.7069 104.696 76.2973 104.828 75.9091 104.937C75.5208 105.042 75.1302 105.122 74.7372 105.179C74.349 105.236 73.9347 105.264 73.4943 105.264C72.268 105.259 71.3045 104.944 70.6037 104.319C69.9077 103.694 69.5597 102.743 69.5597 101.464V97.9061H70.8239V101.464C70.8239 102.07 70.9328 102.565 71.1506 102.949C71.3684 103.332 71.6761 103.616 72.0739 103.801C72.4716 103.981 72.9403 104.071 73.4801 104.071C74.143 104.071 74.768 104.005 75.3551 103.872C75.9422 103.739 76.5365 103.56 77.1378 103.332ZM88.331 102.807V104H81.9176V102.807H88.331ZM82.2301 97.9416V108.851H80.9659V97.9416H82.2301ZM89.2614 97.9416V108.851H87.9972V97.9416H89.2614ZM95.6729 109.099C95.0148 109.099 94.4135 108.971 93.869 108.716C93.3245 108.455 92.8912 108.081 92.5692 107.594C92.2473 107.101 92.0863 106.505 92.0863 105.804C92.0863 105.264 92.1881 104.81 92.3917 104.44C92.5953 104.071 92.8841 103.768 93.2582 103.531C93.6322 103.294 94.0749 103.107 94.5863 102.97C95.0977 102.833 95.6611 102.726 96.2766 102.65C96.8874 102.575 97.4035 102.508 97.8249 102.452C98.2511 102.395 98.5754 102.305 98.7979 102.182C99.0205 102.059 99.1317 101.86 99.1317 101.585V101.329C99.1317 100.586 98.9092 100.001 98.4641 99.5752C98.0238 99.1443 97.3893 98.9289 96.5607 98.9289C95.7747 98.9289 95.1332 99.1017 94.636 99.4473C94.1436 99.793 93.7979 100.2 93.5991 100.669L92.3988 100.236C92.645 99.6391 92.9859 99.1632 93.4215 98.8081C93.8571 98.4483 94.3448 98.1902 94.8846 98.034C95.4244 97.873 95.9712 97.7925 96.5252 97.7925C96.9419 97.7925 97.3751 97.847 97.8249 97.9559C98.2795 98.0648 98.7009 98.2541 99.0891 98.524C99.4774 98.7892 99.7923 99.1609 100.034 99.6391C100.275 100.113 100.396 100.714 100.396 101.443V108.851H99.1317V107.125H99.0536C98.9021 107.447 98.6772 107.759 98.3789 108.062C98.0806 108.365 97.7066 108.614 97.2567 108.808C96.8069 109.002 96.279 109.099 95.6729 109.099ZM95.8434 107.942C96.5157 107.942 97.0981 107.792 97.5906 107.494C98.083 107.196 98.4618 106.801 98.7269 106.308C98.9968 105.811 99.1317 105.264 99.1317 104.667V103.091C99.0371 103.181 98.8784 103.261 98.6559 103.332C98.4381 103.403 98.1848 103.467 97.896 103.524C97.6119 103.576 97.3278 103.621 97.0437 103.659C96.7596 103.697 96.5039 103.73 96.2766 103.758C95.6611 103.834 95.1355 103.953 94.6999 104.114C94.2643 104.275 93.9305 104.497 93.6985 104.781C93.4665 105.06 93.3505 105.42 93.3505 105.861C93.3505 106.524 93.5872 107.037 94.0607 107.402C94.5342 107.762 95.1284 107.942 95.8434 107.942ZM1.66903 132.851V121.942H2.93324V126.849H4.11932L8.17472 121.942H9.80824L5.43324 127.19L9.90767 132.851H8.27415L4.50994 128.042H2.93324V132.851H1.66903ZM15.7724 133.078C14.8301 133.078 13.9968 132.839 13.2724 132.361C12.5527 131.882 11.9892 131.222 11.582 130.379C11.1748 129.532 10.9712 128.554 10.9712 127.446C10.9712 126.328 11.1748 125.346 11.582 124.498C11.9892 123.646 12.5527 122.983 13.2724 122.51C13.9968 122.032 14.8301 121.792 15.7724 121.792C16.7146 121.792 17.5456 122.032 18.2653 122.51C18.985 122.988 19.5484 123.651 19.9556 124.498C20.3675 125.346 20.5735 126.328 20.5735 127.446C20.5735 128.554 20.3699 129.532 19.9627 130.379C19.5555 131.222 18.9897 131.882 18.2653 132.361C17.5456 132.839 16.7146 133.078 15.7724 133.078ZM15.7724 131.92C16.5299 131.92 17.1715 131.717 17.6971 131.31C18.2227 130.902 18.6204 130.36 18.8903 129.683C19.1649 129.006 19.3022 128.26 19.3022 127.446C19.3022 126.632 19.1649 125.883 18.8903 125.202C18.6204 124.52 18.2227 123.973 17.6971 123.561C17.1715 123.149 16.5299 122.943 15.7724 122.943C15.0195 122.943 14.378 123.149 13.8477 123.561C13.3221 123.973 12.922 124.52 12.6474 125.202C12.3775 125.883 12.2425 126.632 12.2425 127.446C12.2425 128.26 12.3775 129.006 12.6474 129.683C12.922 130.36 13.3221 130.902 13.8477 131.31C14.3732 131.717 15.0148 131.92 15.7724 131.92ZM29.0518 131.082L33.1499 121.942H34.3786L29.5561 132.851H28.5476L23.782 121.942H24.9893L29.0518 131.082ZM24.6129 121.942V132.851H23.3487V121.942H24.6129ZM33.4908 132.851V121.942H34.755V132.851H33.4908ZM38.1286 132.851V121.942H46.3885V132.851H45.1172V123.135H39.3999V132.851H38.1286ZM52.7823 133.099C52.1242 133.099 51.5228 132.971 50.9783 132.716C50.4338 132.455 50.0006 132.081 49.6786 131.594C49.3567 131.101 49.1957 130.505 49.1957 129.804C49.1957 129.264 49.2975 128.81 49.5011 128.44C49.7047 128.071 49.9935 127.768 50.3675 127.531C50.7416 127.294 51.1843 127.107 51.6957 126.97C52.207 126.833 52.7705 126.726 53.386 126.65C53.9968 126.575 54.5129 126.508 54.9343 126.452C55.3604 126.395 55.6848 126.305 55.9073 126.182C56.1299 126.059 56.2411 125.86 56.2411 125.585V125.329C56.2411 124.586 56.0186 124.001 55.5735 123.575C55.1332 123.144 54.4987 122.929 53.6701 122.929C52.8841 122.929 52.2425 123.102 51.7454 123.447C51.253 123.793 50.9073 124.2 50.7085 124.669L49.5082 124.236C49.7544 123.639 50.0953 123.163 50.5309 122.808C50.9665 122.448 51.4542 122.19 51.994 122.034C52.5337 121.873 53.0806 121.792 53.6346 121.792C54.0513 121.792 54.4845 121.847 54.9343 121.956C55.3888 122.065 55.8103 122.254 56.1985 122.524C56.5868 122.789 56.9016 123.161 57.1431 123.639C57.3846 124.113 57.5053 124.714 57.5053 125.443V132.851H56.2411V131.125H56.163C56.0115 131.447 55.7866 131.759 55.4883 132.062C55.19 132.365 54.8159 132.614 54.3661 132.808C53.9163 133.002 53.3884 133.099 52.7823 133.099ZM52.9528 131.942C53.6251 131.942 54.2075 131.792 54.6999 131.494C55.1924 131.196 55.5711 130.801 55.8363 130.308C56.1062 129.811 56.2411 129.264 56.2411 128.667V127.091C56.1464 127.181 55.9878 127.261 55.7653 127.332C55.5475 127.403 55.2942 127.467 55.0053 127.524C54.7212 127.576 54.4371 127.621 54.1531 127.659C53.869 127.697 53.6133 127.73 53.386 127.758C52.7705 127.834 52.2449 127.953 51.8093 128.114C51.3737 128.275 51.0399 128.497 50.8079 128.781C50.5759 129.06 50.4599 129.42 50.4599 129.861C50.4599 130.524 50.6966 131.037 51.1701 131.402C51.6436 131.762 52.2378 131.942 52.9528 131.942ZM68.2333 126.807V128H61.82V126.807H68.2333ZM62.1325 121.942V132.851H60.8683V121.942H62.1325ZM69.1637 121.942V132.851H67.8995V121.942H69.1637ZM72.5426 132.851V121.942H73.8139V132.851H72.5426ZM73.1889 120.067C72.9285 120.067 72.706 119.979 72.5213 119.804C72.3366 119.624 72.2443 119.409 72.2443 119.158C72.2443 118.907 72.3366 118.694 72.5213 118.518C72.706 118.338 72.9285 118.248 73.1889 118.248C73.4493 118.248 73.6719 118.338 73.8565 118.518C74.0412 118.694 74.1335 118.907 74.1335 119.158C74.1335 119.409 74.0412 119.624 73.8565 119.804C73.6719 119.979 73.4493 120.067 73.1889 120.067ZM83.7198 132.851V123.114H80.7156C79.9343 123.118 79.3401 123.282 78.9329 123.604C78.5304 123.926 78.3292 124.406 78.3292 125.045C78.3292 125.685 78.521 126.165 78.9045 126.487C79.288 126.804 79.8467 126.963 80.5806 126.963H84.0749V128.156H80.5806C79.8278 128.156 79.1886 128.035 78.663 127.794C78.1422 127.552 77.7444 127.2 77.4698 126.736C77.1952 126.272 77.0579 125.708 77.0579 125.045C77.0579 124.378 77.1976 123.814 77.4769 123.355C77.761 122.891 78.1753 122.541 78.7198 122.304C79.2691 122.062 79.9343 121.942 80.7156 121.942H84.9272V132.851H83.7198ZM76.369 132.851L79.5082 127.425H80.8931L77.7539 132.851H76.369Z" fill="black"/>
</svg>
