<svg width="230" height="230" viewBox="0 0 230 230" fill="none" xmlns="http://www.w3.org/2000/svg">
<path d="M70.3815 25.3895V101.857H58.0601L22.0293 49.7712H21.3945V101.857H7.54224V25.3895H19.9384L55.9319 77.513H56.6038V25.3895H70.3815ZM85.4753 101.857V25.3895H99.3275V60.5243H100.261L130.094 25.3895H147.008L117.436 59.7029L147.269 101.857H130.617L107.803 69.0747L99.3275 79.0812V101.857H85.4753ZM197.777 46.4107C197.429 43.15 195.96 40.6109 193.373 38.7938C190.808 36.9768 187.473 36.0681 183.366 36.0681C180.478 36.0681 178 36.5038 175.935 37.375C173.869 38.2462 172.288 39.4286 171.194 40.9221C170.098 42.4156 169.538 44.1207 169.513 46.0373C169.513 47.6304 169.875 49.0118 170.596 50.1819C171.342 51.3518 172.351 52.3473 173.62 53.1688C174.89 53.9654 176.297 54.6375 177.839 55.185C179.382 55.7326 180.938 56.1931 182.507 56.5665L189.676 58.3587C192.563 59.0308 195.339 59.9393 198.002 61.0844C200.69 62.2295 203.092 63.6732 205.208 65.4156C207.348 67.158 209.04 69.2614 210.286 71.7257C211.531 74.1899 212.152 77.0774 212.152 80.388C212.152 84.8685 211.007 88.8138 208.717 92.2241C206.428 95.6093 203.116 98.2603 198.786 100.177C194.48 102.069 189.265 103.015 183.141 103.015C177.192 103.015 172.027 102.094 167.645 100.252C163.29 98.4096 159.88 95.7214 157.416 92.1866C154.976 88.652 153.657 84.3458 153.458 79.2679H167.087C167.286 81.9313 168.107 84.1466 169.551 85.914C170.994 87.6813 172.873 89.0005 175.188 89.8717C177.529 90.7429 180.143 91.1786 183.029 91.1786C186.04 91.1786 188.679 90.7306 190.944 89.8344C193.235 88.9134 195.027 87.644 196.321 86.0259C197.616 84.3831 198.275 82.4665 198.301 80.2759C198.275 78.2846 197.69 76.6417 196.545 75.3473C195.4 74.0281 193.795 72.9328 191.73 72.0616C189.688 71.1656 187.299 70.369 184.56 69.6721L175.86 67.4319C169.563 65.8138 164.585 63.362 160.925 60.0763C157.291 56.7656 155.474 52.3723 155.474 46.8962C155.474 42.3906 156.694 38.4453 159.133 35.06C161.597 31.6748 164.946 29.0487 169.177 27.1819C173.409 25.29 178.201 24.3442 183.552 24.3442C188.978 24.3442 193.732 25.29 197.815 27.1819C201.922 29.0487 205.145 31.65 207.485 34.9855C209.826 38.296 211.033 42.1044 211.107 46.4107H197.777Z" fill="black"/>
<path d="M228.27 123.582H0V128.731H228.27V123.582Z" fill="#9D8329"/>
<path d="M5.35564 154.942V178.838H3.17373V154.942H5.35564ZM10.7696 166.19V168.15H3.8038V166.19H10.7696ZM30.722 166.878C30.722 169.367 30.2785 171.534 29.3917 173.377C28.5051 175.212 27.2838 176.637 25.728 177.647C24.1801 178.651 22.3987 179.154 20.3841 179.154C18.3693 179.154 16.5842 178.651 15.0284 177.647C13.4805 176.637 12.2631 175.212 11.3764 173.377C10.4974 171.534 10.0579 169.367 10.0579 166.878C10.0579 164.389 10.4974 162.227 11.3764 160.391C12.2631 158.547 13.4844 157.124 15.0401 156.12C16.5958 155.109 18.3772 154.603 20.3841 154.603C22.3987 154.603 24.1801 155.109 25.728 156.12C27.2838 157.124 28.5051 158.547 29.3917 160.391C30.2785 162.227 30.722 164.389 30.722 166.878ZM28.5984 166.878C28.5984 164.739 28.2406 162.907 27.5249 161.382C26.8093 159.85 25.833 158.679 24.5962 157.871C23.3595 157.061 21.9553 156.657 20.3841 156.657C18.8206 156.657 17.4204 157.061 16.1836 157.871C14.9468 158.679 13.9666 159.846 13.2432 161.371C12.5276 162.896 12.1698 164.731 12.1698 166.878C12.1698 169.017 12.5276 170.849 13.2432 172.373C13.9589 173.898 14.9351 175.069 16.1719 175.886C17.4087 176.694 18.8127 177.1 20.3841 177.1C21.9553 177.1 23.3595 176.694 24.5962 175.886C25.8409 175.078 26.821 173.91 27.5366 172.385C28.2522 170.854 28.6061 169.017 28.5984 166.878ZM35.5671 185.548V160.904H37.5856V164.323H37.8306C38.0797 163.786 38.4219 163.238 38.8574 162.678C39.2931 162.11 39.8687 161.632 40.5844 161.242C41.3077 160.854 42.2178 160.659 43.3146 160.659C44.7925 160.659 46.0838 161.048 47.1885 161.826C48.3009 162.596 49.1642 163.677 49.7788 165.069C50.4011 166.454 50.7122 168.068 50.7122 169.912C50.7122 171.762 50.4011 173.385 49.7788 174.777C49.1642 176.17 48.3009 177.254 47.1885 178.033C46.0838 178.81 44.8004 179.2 43.3379 179.2C42.2568 179.2 41.3506 179.006 40.6193 178.616C39.8958 178.227 39.3087 177.749 38.8574 177.18C38.4141 176.605 38.0718 176.045 37.8306 175.501H37.644V185.548H35.5671ZM37.6206 169.876C37.6206 171.324 37.8345 172.607 38.2623 173.727C38.698 174.839 39.3203 175.715 40.1293 176.352C40.9461 176.983 41.934 177.297 43.093 177.297C44.2831 177.297 45.2865 176.97 46.1034 176.318C46.9278 175.656 47.554 174.765 47.9818 173.645C48.4175 172.526 48.6352 171.269 48.6352 169.876C48.6352 168.5 48.4213 167.259 47.9935 166.155C47.5734 165.05 46.9512 164.175 46.1267 163.53C45.3021 162.876 44.2908 162.549 43.093 162.549C41.9261 162.549 40.9343 162.864 40.1176 163.495C39.3008 164.117 38.6785 164.981 38.2507 166.085C37.8306 167.182 37.6206 168.445 37.6206 169.876ZM57.3454 175.874L66.8081 160.904H69.2934V178.827H67.2165V163.856L57.7888 178.827H55.2685V160.904H57.3454V175.874ZM72.6539 183.924V176.867H74.2058C74.5946 176.43 74.933 175.96 75.2209 175.454C75.5087 174.948 75.7576 174.373 75.9676 173.727C76.1854 173.073 76.3682 172.316 76.5159 171.452C76.6638 170.581 76.7882 169.566 76.8894 168.406L77.5427 160.904H88.149V176.867H90.8093V183.924H88.7324V178.827H74.7425V183.924H72.6539ZM76.5976 176.867H86.0721V162.864H79.4796L78.9429 168.406C78.7563 170.289 78.4918 171.93 78.1494 173.331C77.8072 174.731 77.2899 175.909 76.5976 176.867ZM96.8446 175.874L106.307 160.904H108.793V178.827H106.716V163.856L97.2881 178.827H94.7678V160.904H96.8446V175.874ZM127.496 160.904V178.827H125.408V160.904H127.496ZM126.726 169.76V171.744C126.019 172.001 125.346 172.217 124.708 172.396C124.07 172.569 123.428 172.7 122.783 172.794C122.145 172.888 121.464 172.934 120.741 172.934C118.726 172.925 117.143 172.408 115.992 171.381C114.848 170.354 114.277 168.792 114.277 166.691V160.846H116.354V166.691C116.354 167.686 116.532 168.5 116.89 169.13C117.248 169.76 117.754 170.226 118.407 170.53C119.061 170.826 119.831 170.974 120.717 170.974C121.806 170.974 122.833 170.865 123.798 170.647C124.762 170.428 125.739 170.134 126.726 169.76ZM145.115 168.897V170.857H134.579V168.897H145.115ZM135.092 160.904V178.827H133.015V160.904H135.092ZM146.644 160.904V178.827H144.567V160.904H146.644ZM157.177 179.234C156.096 179.234 155.108 179.024 154.213 178.605C153.319 178.176 152.607 177.562 152.078 176.762C151.549 175.952 151.285 174.972 151.285 173.821C151.285 172.934 151.452 172.188 151.786 171.58C152.121 170.974 152.595 170.476 153.21 170.087C153.824 169.697 154.552 169.39 155.392 169.165C156.232 168.94 157.158 168.764 158.169 168.639C159.172 168.516 160.02 168.406 160.712 168.314C161.413 168.22 161.945 168.072 162.311 167.87C162.677 167.668 162.859 167.341 162.859 166.89V166.469C162.859 165.248 162.494 164.287 161.762 163.588C161.039 162.88 159.997 162.526 158.635 162.526C157.344 162.526 156.29 162.81 155.473 163.378C154.665 163.946 154.097 164.614 153.77 165.385L151.798 164.673C152.203 163.693 152.763 162.911 153.478 162.328C154.194 161.736 154.995 161.312 155.882 161.056C156.769 160.791 157.667 160.659 158.577 160.659C159.262 160.659 159.973 160.749 160.712 160.928C161.459 161.106 162.152 161.417 162.789 161.861C163.427 162.297 163.945 162.907 164.342 163.693C164.738 164.471 164.936 165.459 164.936 166.656V178.827H162.859V175.991H162.731C162.482 176.52 162.113 177.033 161.623 177.53C161.132 178.028 160.518 178.437 159.779 178.756C159.04 179.075 158.173 179.234 157.177 179.234ZM157.457 177.333C158.562 177.333 159.518 177.087 160.327 176.597C161.136 176.108 161.759 175.459 162.194 174.649C162.638 173.832 162.859 172.934 162.859 171.953V169.364C162.704 169.512 162.443 169.643 162.078 169.76C161.72 169.876 161.304 169.981 160.829 170.075C160.362 170.161 159.896 170.234 159.429 170.297C158.962 170.359 158.542 170.414 158.169 170.46C157.158 170.584 156.294 170.78 155.578 171.044C154.863 171.309 154.314 171.674 153.933 172.14C153.552 172.599 153.362 173.19 153.362 173.914C153.362 175.004 153.75 175.846 154.528 176.446C155.306 177.038 156.282 177.333 157.457 177.333ZM2.742 218.255V200.333H4.81892V208.395H6.76748L13.4299 200.333H16.1136L8.92606 208.955L16.2769 218.255H13.5933L7.40921 210.355H4.81892V218.255H2.742ZM25.9118 218.628C24.3638 218.628 22.9948 218.235 21.8047 217.45C20.6223 216.663 19.6966 215.579 19.0276 214.194C18.3586 212.803 18.0241 211.196 18.0241 209.376C18.0241 207.539 18.3586 205.926 19.0276 204.532C19.6966 203.133 20.6223 202.043 21.8047 201.266C22.9948 200.481 24.3638 200.087 25.9118 200.087C27.4597 200.087 28.8249 200.481 30.0073 201.266C31.1897 202.052 32.1153 203.141 32.7842 204.532C33.4609 205.926 33.7993 207.539 33.7993 209.376C33.7993 211.196 33.4649 212.803 32.7959 214.194C32.1269 215.579 31.1974 216.663 30.0073 217.45C28.8249 218.235 27.4597 218.628 25.9118 218.628ZM25.9118 216.726C27.1563 216.726 28.2103 216.392 29.0738 215.724C29.9373 215.053 30.5907 214.163 31.0341 213.051C31.4852 211.938 31.7108 210.713 31.7108 209.376C31.7108 208.038 31.4852 206.808 31.0341 205.689C30.5907 204.569 29.9373 203.67 29.0738 202.993C28.2103 202.316 27.1563 201.978 25.9118 201.978C24.6749 201.978 23.621 202.316 22.7498 202.993C21.8863 203.67 21.229 204.569 20.7779 205.689C20.3345 206.808 20.1127 208.038 20.1127 209.376C20.1127 210.713 20.3345 211.938 20.7779 213.051C21.229 214.163 21.8863 215.053 22.7498 215.724C23.6131 216.392 24.6672 216.726 25.9118 216.726ZM47.728 215.349L54.4606 200.333H56.4792L48.5565 218.255H46.8997L39.0705 200.333H41.0539L47.728 215.349ZM40.4355 200.333V218.255H38.3586V200.333H40.4355ZM55.0206 218.255V200.333H57.0975V218.255H55.0206ZM62.6399 218.255V200.333H76.2097V218.255H74.1211V202.293H64.7284V218.255H62.6399ZM86.7138 218.663C85.6326 218.663 84.6446 218.452 83.7501 218.033C82.8556 217.605 82.1439 216.99 81.6149 216.19C81.086 215.38 80.8215 214.401 80.8215 213.249C80.8215 212.362 80.9888 211.616 81.3233 211.009C81.6577 210.402 82.1322 209.905 82.7466 209.515C83.3612 209.126 84.0885 208.819 84.9287 208.594C85.7687 208.368 86.6944 208.193 87.7056 208.068C88.7091 207.945 89.5569 207.835 90.2492 207.743C90.9493 207.649 91.4822 207.501 91.8477 207.299C92.2134 207.097 92.3961 206.77 92.3961 206.318V205.898C92.3961 204.677 92.0306 203.716 91.2994 203.016C90.576 202.308 89.5336 201.955 88.1723 201.955C86.8811 201.955 85.827 202.239 85.0103 202.806C84.2014 203.374 83.6335 204.043 83.3069 204.813L81.3349 204.102C81.7394 203.121 82.2995 202.339 83.0151 201.756C83.7307 201.165 84.5319 200.741 85.4187 200.484C86.3054 200.22 87.2039 200.087 88.114 200.087C88.7986 200.087 89.5103 200.177 90.2492 200.356C90.9959 200.535 91.6884 200.846 92.3261 201.289C92.9641 201.725 93.4812 202.336 93.878 203.121C94.2747 203.9 94.473 204.887 94.473 206.085V218.255H92.3961V215.42H92.2678C92.0189 215.949 91.6494 216.461 91.1594 216.959C90.6693 217.457 90.0547 217.866 89.3158 218.185C88.5768 218.503 87.7095 218.663 86.7138 218.663ZM86.9939 216.762C88.0984 216.762 89.0552 216.515 89.8642 216.026C90.6733 215.536 91.2954 214.887 91.7311 214.077C92.1745 213.261 92.3961 212.362 92.3961 211.381V208.792C92.2405 208.94 91.98 209.072 91.6145 209.188C91.2566 209.305 90.8405 209.41 90.3659 209.504C89.8991 209.589 89.4324 209.663 88.9658 209.725C88.4991 209.788 88.079 209.842 87.7056 209.888C86.6944 210.013 85.8309 210.208 85.1153 210.473C84.3997 210.737 83.8513 211.102 83.4702 211.569C83.089 212.027 82.8984 212.619 82.8984 213.343C82.8984 214.432 83.2873 215.275 84.0652 215.875C84.8431 216.466 85.8193 216.762 86.9939 216.762ZM112.098 208.326V210.286H101.561V208.326H112.098ZM102.075 200.333V218.255H99.998V200.333H102.075ZM113.626 200.333V218.255H111.549V200.333H113.626ZM119.177 218.255V200.333H121.266V218.255H119.177ZM120.239 197.253C119.811 197.253 119.446 197.108 119.142 196.821C118.839 196.525 118.687 196.172 118.687 195.76C118.687 195.347 118.839 194.997 119.142 194.708C119.446 194.412 119.811 194.265 120.239 194.265C120.667 194.265 121.032 194.412 121.336 194.708C121.639 194.997 121.791 195.347 121.791 195.76C121.791 196.172 121.639 196.525 121.336 196.821C121.032 197.108 120.667 197.253 120.239 197.253ZM137.54 218.255V202.259H132.604C131.321 202.265 130.344 202.535 129.676 203.064C129.014 203.593 128.684 204.381 128.684 205.431C128.684 206.482 128.999 207.271 129.629 207.8C130.259 208.321 131.177 208.582 132.382 208.582H138.123V210.542H132.382C131.146 210.542 130.096 210.343 129.232 209.947C128.377 209.55 127.723 208.971 127.272 208.209C126.821 207.447 126.595 206.52 126.595 205.431C126.595 204.335 126.825 203.409 127.284 202.655C127.75 201.892 128.431 201.317 129.325 200.928C130.228 200.53 131.321 200.333 132.604 200.333H139.523V218.255H137.54ZM125.463 218.255L130.621 209.341H132.896L127.739 218.255H125.463Z" fill="black"/>
</svg>
