<svg width="40" height="40" viewBox="0 0 40 40" fill="none" xmlns="http://www.w3.org/2000/svg">
<path d="M17.0324 22.4872L21.8081 27.263C22.2357 27.6907 22.8931 27.7873 23.4257 27.5014L29.149 24.429C29.5723 24.2015 30.0838 24.2125 30.497 24.4579L38.8474 29.4133C39.4433 29.7668 39.683 30.5063 39.4042 31.1403C38.6906 32.7642 37.3918 35.7405 36.8758 37.0565C36.7674 37.3336 36.6058 37.5874 36.381 37.7819C30.8158 42.606 19.7434 36.728 11.2683 28.2528C2.79189 19.777 -3.08593 8.70439 1.73804 3.1391C1.933 2.91427 2.1868 2.75268 2.46344 2.64422C3.77899 2.12826 6.75566 0.829374 8.37945 0.115818C9.01352 -0.163017 9.75297 0.0767373 10.1064 0.672611L15.0617 9.02319C15.3067 9.43639 15.3177 9.94796 15.0907 10.3713L12.0183 16.0938C11.7324 16.6264 11.829 17.2837 12.2567 17.7114L17.0324 22.4872Z" fill="#9D8329"/>
<path d="M39.5192 21.736H35.5672C35.5672 11.9298 27.5896 3.952 17.7836 3.952V0C29.7685 0 39.5192 9.7509 39.5192 21.736Z" fill="#9D8329"/>
<path d="M31.8349 21.7361H27.883C27.883 16.1673 23.3528 11.6366 17.7836 11.6366V7.68457C25.5316 7.68457 31.8349 13.988 31.8349 21.7361Z" fill="#9D8329"/>
</svg>
